<?xml version="1.0" encoding="UTF-8" standalone="no"?>
<!-- Created with Inkscape (http://www.inkscape.org/) -->

<svg
   width="78.732254mm"
   height="28.191025mm"
   viewBox="0 0 278.97255 99.889457"
   id="svg2"
   version="1.1"
   inkscape:version="1.3.2 (1:1.3.2+202311252150+091e20ef0f)"
   sodipodi:docname="MicroBlocksLogo.svg"
   inkscape:export-filename="MicroBlocksLogo-5000px.png"
   inkscape:export-xdpi="1613.0601"
   inkscape:export-ydpi="1613.0601"
   xmlns:inkscape="http://www.inkscape.org/namespaces/inkscape"
   xmlns:sodipodi="http://sodipodi.sourceforge.net/DTD/sodipodi-0.dtd"
   xmlns="http://www.w3.org/2000/svg"
   xmlns:svg="http://www.w3.org/2000/svg"
   xmlns:rdf="http://www.w3.org/1999/02/22-rdf-syntax-ns#"
   xmlns:cc="http://creativecommons.org/ns#"
   xmlns:dc="http://purl.org/dc/elements/1.1/">
  <defs
     id="defs4" />
  <sodipodi:namedview
     id="base"
     pagecolor="#ffffff"
     bordercolor="#666666"
     borderopacity="1.0"
     inkscape:pageopacity="0.0"
     inkscape:pageshadow="2"
     inkscape:zoom="4.1712288"
     inkscape:cx="153.55187"
     inkscape:cy="53.341596"
     inkscape:document-units="px"
     inkscape:current-layer="g4291"
     showgrid="false"
     inkscape:window-width="1918"
     inkscape:window-height="1012"
     inkscape:window-x="302"
     inkscape:window-y="1080"
     inkscape:window-maximized="0"
     showguides="true"
     inkscape:guide-bbox="true"
     inkscape:snap-bbox="true"
     inkscape:bbox-paths="true"
     inkscape:bbox-nodes="true"
     fit-margin-top="0"
     fit-margin-left="0"
     fit-margin-right="0"
     fit-margin-bottom="0"
     inkscape:showpageshadow="2"
     inkscape:pagecheckerboard="0"
     inkscape:deskcolor="#d1d1d1"
     inkscape:export-bgcolor="#ffffffff" />
  <metadata
     id="metadata7">
    <rdf:RDF>
      <cc:Work
         rdf:about="">
        <dc:format>image/svg+xml</dc:format>
        <dc:type
           rdf:resource="http://purl.org/dc/dcmitype/StillImage" />
      </cc:Work>
    </rdf:RDF>
  </metadata>
  <g
     inkscape:label="Capa 1"
     inkscape:groupmode="layer"
     id="layer1"
     transform="translate(-137.8275,-472.01213)">
    <g
       style="font-style:normal;font-variant:normal;font-weight:bold;font-stretch:normal;font-size:48.6965px;line-height:125%;font-family:Laksaman;-inkscape-font-specification:'Laksaman Bold';letter-spacing:0px;word-spacing:0px;fill:#000000;fill-opacity:1;stroke:none;stroke-width:1px;stroke-linecap:butt;stroke-linejoin:miter;stroke-opacity:1"
       id="text4244" />
    <g
       id="g5065"
       transform="translate(-7.167164,147.14286)"
       inkscape:export-filename="/tmp/ublocks.png"
       inkscape:export-xdpi="146.88332"
       inkscape:export-ydpi="146.88332">
      <g
         id="g5137">
        <g
           id="g4291"
           inkscape:export-filename="/tmp/ublocks.png"
           inkscape:export-xdpi="146"
           inkscape:export-ydpi="146">
          <text
             xml:space="preserve"
             style="font-style:normal;font-variant:normal;font-weight:bold;font-stretch:normal;font-size:35.9343px;line-height:1.25;font-family:Laksaman;-inkscape-font-specification:'Laksaman Bold';letter-spacing:0px;word-spacing:0px;stroke-width:0.898357"
             x="213.73509"
             y="391.854"
             id="text915"><tspan
               sodipodi:role="line"
               id="tspan913"
               style="font-style:normal;font-variant:normal;font-weight:bold;font-stretch:normal;font-family:Laksaman;-inkscape-font-specification:'Laksaman Bold';stroke-width:0.898357"
               x="213.73509"
               y="391.854">MicroBlocks</tspan></text>
          <g
             transform="matrix(0.62474074,0,0,0.62474074,225.56605,163.13584)"
             id="g4972">
            <path
               d="m -69.766886,260.64559 c -6.087497,0.20299 -26.552994,5.35885 -26.552994,24.31591 0,11.91803 1.914165,27.18751 4.849389,37.30843 -5.575421,0.60435 -10.286369,1.48665 -14.272859,2.61707 2.43225,-8.23465 4.02451,-16.59647 4.02451,-26.40091 0,-35.18724 10.426121,-37.65455 5.247671,-37.65455 -5.178191,0 -27.984611,11.77147 -26.581841,37.65455 0.62202,11.46522 4.75893,27.78271 7.91844,35.4337 -6.92181,11.98884 -12.07378,23.07859 -12.07378,35.30261 0,26.37994 21.40942,47.78857 47.788571,47.78857 26.379155,0 47.788572,-21.40941 47.788572,-47.78857 0,-8.61353 -6.058393,-47.83314 -46.23897,-47.83314 2.79243,-10.11201 4.596366,-24.8563 4.596366,-36.43007 0,-19.56851 10.285319,-24.31591 3.922774,-24.31591 -0.198831,0 -0.221889,-0.007 -0.418261,0 z"
               style="fill:#ffffff;stroke:#000000;stroke-width:3.51872;stroke-linejoin:round;stroke-dashoffset:68"
               sodipodi:nodetypes="csccssscssscssc"
               id="path5435"
               inkscape:connector-curvature="0" />
            <path
               d="m -98.383394,386.31543 c 3.155053,3.15505 6.911854,5.70888 11.082407,7.47401 4.170554,1.76497 8.755121,2.74104 13.566491,2.74104 4.811107,0 9.395674,-0.97617 13.56649,-2.74104 4.170553,-1.76497 7.927092,-4.3187 11.082407,-7.47401"
               style="fill:none;stroke:#000000;stroke-width:2.56704;stroke-linejoin:round;stroke-dashoffset:68"
               id="path6207"
               inkscape:connector-curvature="0" />
            <path
               d="m -80.857946,395.49243 2.031185,8.56057 5.937257,-1.27568 0.54687,-15.24117"
               style="fill:none;stroke:#000000;stroke-width:3.32207;stroke-linejoin:round;stroke-dashoffset:68"
               sodipodi:nodetypes="cccc"
               id="path6220"
               inkscape:connector-curvature="0" />
            <path
               d="m -72.108332,402.23884 6.562342,0.13428 0.156245,-6.04266"
               style="fill:none;stroke:#000000;stroke-width:3.32207;stroke-linejoin:round;stroke-dashoffset:68"
               id="path6222"
               inkscape:connector-curvature="0" />
            <path
               d="m -72.23681,388.64377 -6.172188,-5.77391 10.427694,-0.20137 z"
               style="fill:#000000;stroke:#000000;stroke-width:2.41489;stroke-linejoin:round;stroke-dashoffset:68"
               id="path9535"
               inkscape:connector-curvature="0" />
            <circle
               transform="rotate(-20.636412)"
               style="fill:#000000"
               id="path9541"
               cx="-212.73401"
               cy="320.30676"
               r="3.8488374" />
            <circle
               transform="rotate(23.505011)"
               style="fill:#000000"
               id="path9543"
               cx="90.744019"
               cy="366.73895"
               r="3.8487532" />
          </g>
          <g
             aria-label="Small, Fast, Human Friendly"
             style="font-style:normal;font-variant:normal;font-weight:normal;font-stretch:normal;line-height:0%;font-family:Laksaman;-inkscape-font-specification:Laksaman;letter-spacing:0px;word-spacing:0px;fill:#000000;fill-opacity:1;stroke:none;stroke-width:1px;stroke-linecap:butt;stroke-linejoin:miter;stroke-opacity:1"
             id="text4244-7-2">
            <path
               d="m 220.9884,407.02627 q 0,1.19889 -0.90239,1.89503 -0.88951,0.69613 -2.23021,0.69613 -1.52118,0 -2.5396,-0.70903 l 0.3094,-0.65745 q 0.95396,0.72191 2.30755,0.72191 1.01842,0 1.65009,-0.48987 0.63168,-0.48987 0.63168,-1.39227 0,-0.87661 -0.50276,-1.31492 -0.50276,-0.45119 -1.50829,-0.76059 -2.57827,-0.83793 -2.57827,-2.60405 0,-1.08287 0.82504,-1.71455 0.82505,-0.64457 2.03684,-0.64457 1.28914,0 2.11418,0.48987 -0.0258,0.0516 -0.15469,0.28361 -0.11603,0.21916 -0.16759,0.32229 -0.83794,-0.4512 -1.80479,-0.4512 -0.9024,0 -1.4954,0.42541 -0.58011,0.42542 -0.58011,1.1989 0,1.27624 1.99816,1.97238 0.64457,0.23204 1.03131,0.42541 0.39963,0.18048 0.79926,0.48987 0.39963,0.3094 0.58011,0.76059 0.18048,0.4512 0.18048,1.0571 z"
               style="font-style:normal;font-variant:normal;font-weight:normal;font-stretch:normal;font-size:12.8914px;line-height:125%;font-family:Laksaman;-inkscape-font-specification:Laksaman;text-align:start;writing-mode:lr-tb;text-anchor:start"
               id="path2829" />
            <path
               d="m 229.92594,402.70766 q 1.14733,0 1.74034,0.86372 0.593,0.86372 0.593,2.20442 v 3.66115 h -0.77348 v -3.64825 q 0,-1.08288 -0.43831,-1.75323 -0.42541,-0.68324 -1.32781,-0.68324 -0.73481,0 -1.31492,0.58011 -0.58011,0.58011 -0.58011,1.31492 v 4.18969 h -0.77348 v -3.99632 q 0,-2.0884 -1.66299,-2.0884 -0.76059,0 -1.37937,0.65746 -0.61879,0.65746 -0.61879,1.43094 v 3.99632 h -0.77348 v -4.96317 q 0,-0.58011 -0.12891,-1.62431 h 0.70902 q 0.12892,0.39963 0.1547,1.17311 0.7477,-1.31492 2.21731,-1.31492 1.3407,0 1.99816,1.46962 0.77349,-1.46962 2.35912,-1.46962 z"
               style="font-style:normal;font-variant:normal;font-weight:normal;font-stretch:normal;font-size:12.8914px;line-height:125%;font-family:Laksaman;-inkscape-font-specification:Laksaman;text-align:start;writing-mode:lr-tb;text-anchor:start"
               id="path2831" />
            <path
               d="m 235.87269,409.61743 q -0.87662,0 -1.4954,-0.50276 -0.6059,-0.51566 -0.6059,-1.32781 0,-2.46225 4.38307,-2.46225 0,-0.94107 -0.4512,-1.45673 -0.4512,-0.51565 -1.32781,-0.51565 -0.70903,0 -2.10129,0.4383 l -0.0902,-0.7348 q 1.08287,-0.34807 2.24309,-0.34807 2.50093,0 2.50093,2.75875 v 2.35912 q 0,0.81216 0.23204,1.61142 l -0.67035,0.14181 -0.27072,-1.06999 q -0.8895,1.10866 -2.34622,1.10866 z m -1.32781,-1.95949 q 0,0.6059 0.37385,0.96685 0.37384,0.34807 0.97974,0.34807 0.77348,0 1.50829,-0.47698 0.7477,-0.48987 0.7477,-1.186 v -1.34071 q -3.60958,0 -3.60958,1.68877 z"
               style="font-style:normal;font-variant:normal;font-weight:normal;font-stretch:normal;font-size:12.8914px;line-height:125%;font-family:Laksaman;-inkscape-font-specification:Laksaman;text-align:start;writing-mode:lr-tb;text-anchor:start"
               id="path2833" />
            <path
               d="m 243.47315,408.97286 -0.0773,0.64457 q -2.44936,-0.11602 -2.44936,-3.49356 v -6.48435 h 0.77349 v 6.21363 q 0,0.73481 0.0644,1.23757 0.0645,0.50277 0.23205,0.96686 0.18048,0.46408 0.54143,0.69613 0.36096,0.21915 0.91529,0.21915 z"
               style="font-style:normal;font-variant:normal;font-weight:normal;font-stretch:normal;font-size:12.8914px;line-height:125%;font-family:Laksaman;-inkscape-font-specification:Laksaman;text-align:start;writing-mode:lr-tb;text-anchor:start"
               id="path2835" />
            <path
               d="m 247.35063,408.97286 -0.0773,0.64457 q -2.44936,-0.11602 -2.44936,-3.49356 v -6.48435 h 0.77349 v 6.21363 q 0,0.73481 0.0644,1.23757 0.0645,0.50277 0.23205,0.96686 0.18048,0.46408 0.54143,0.69613 0.36096,0.21915 0.91529,0.21915 z"
               style="font-style:normal;font-variant:normal;font-weight:normal;font-stretch:normal;font-size:12.8914px;line-height:125%;font-family:Laksaman;-inkscape-font-specification:Laksaman;text-align:start;writing-mode:lr-tb;text-anchor:start"
               id="path2837" />
            <path
               d="m 249.35886,408.12203 q 0.3094,0 0.51566,0.23205 0.20626,0.23204 0.20626,0.55432 -0.0258,0.82505 -0.47698,1.58564 -0.43831,0.76059 -1.05709,1.05709 l -0.27072,-0.2965 q 1.00552,-0.67035 1.12155,-1.67587 -0.2965,0 -0.52855,-0.21916 -0.21915,-0.21915 -0.21915,-0.50276 0,-0.2965 0.20626,-0.51565 0.21915,-0.21916 0.50276,-0.21916 z"
               style="font-style:normal;font-variant:normal;font-weight:normal;font-stretch:normal;font-size:12.8914px;line-height:125%;font-family:Laksaman;-inkscape-font-specification:Laksaman;text-align:start;writing-mode:lr-tb;text-anchor:start"
               id="path2839" />
            <path
               d="m 260.96632,405.00232 h -4.15101 v 4.43463 h -0.77349 v -9.23021 h 5.221 v 0.64456 h -4.44751 v 3.50645 h 4.15101 z"
               style="font-style:normal;font-variant:normal;font-weight:normal;font-stretch:normal;font-size:12.8914px;line-height:125%;font-family:Laksaman;-inkscape-font-specification:Laksaman;text-align:start;writing-mode:lr-tb;text-anchor:start"
               id="path2841" />
            <path
               d="m 264.39986,409.61743 q -0.87661,0 -1.4954,-0.50276 -0.60589,-0.51566 -0.60589,-1.32781 0,-2.46225 4.38306,-2.46225 0,-0.94107 -0.4512,-1.45673 -0.4512,-0.51565 -1.32781,-0.51565 -0.70902,0 -2.10129,0.4383 l -0.0902,-0.7348 q 1.08287,-0.34807 2.2431,-0.34807 2.50092,0 2.50092,2.75875 v 2.35912 q 0,0.81216 0.23204,1.61142 l -0.67035,0.14181 -0.27071,-1.06999 q -0.88951,1.10866 -2.34623,1.10866 z m -1.32781,-1.95949 q 0,0.6059 0.37385,0.96685 0.37385,0.34807 0.97974,0.34807 0.77348,0 1.50829,-0.47698 0.7477,-0.48987 0.7477,-1.186 v -1.34071 q -3.60958,0 -3.60958,1.68877 z"
               style="font-style:normal;font-variant:normal;font-weight:normal;font-stretch:normal;font-size:12.8914px;line-height:125%;font-family:Laksaman;-inkscape-font-specification:Laksaman;text-align:start;writing-mode:lr-tb;text-anchor:start"
               id="path2843" />
            <path
               d="m 271.31708,403.35223 q -0.54144,0 -0.90239,0.30939 -0.36096,0.2965 -0.36096,0.78637 0,0.36096 0.37385,0.70903 0.38674,0.34807 1.08287,0.593 1.76612,0.6059 1.76612,1.9466 0,0.90239 -0.68324,1.41805 -0.67036,0.50276 -1.70166,0.50276 -0.95396,0 -1.85636,-0.52855 l 0.28361,-0.61878 q 0.92818,0.50276 1.6372,0.50276 1.54697,0 1.54697,-1.22468 0,-0.4512 -0.37385,-0.81215 -0.36096,-0.37385 -1.08288,-0.59301 -1.76611,-0.54143 -1.76611,-1.79189 0,-0.83794 0.61878,-1.34071 0.63168,-0.50276 1.55986,-0.50276 1.01841,0 1.62431,0.4512 l -0.3094,0.65746 q -0.58011,-0.46409 -1.45672,-0.46409 z"
               style="font-style:normal;font-variant:normal;font-weight:normal;font-stretch:normal;font-size:12.8914px;line-height:125%;font-family:Laksaman;-inkscape-font-specification:Laksaman;text-align:start;writing-mode:lr-tb;text-anchor:start"
               id="path2845" />
            <path
               d="m 277.05152,409.61743 q -0.79927,0 -1.25046,-0.593 -0.43831,-0.6059 -0.43831,-1.52118 v -4.07367 h -1.31492 v -0.58011 h 1.31492 v -1.95949 l 0.77348,-0.34807 v 2.30756 h 2.10129 v 0.58011 h -2.10129 v 4.07367 q 0,1.46961 0.97974,1.46961 0.6059,0 0.88951,-0.11602 l 0.0774,0.58011 q -0.39964,0.18048 -1.03131,0.18048 z"
               style="font-style:normal;font-variant:normal;font-weight:normal;font-stretch:normal;font-size:12.8914px;line-height:125%;font-family:Laksaman;-inkscape-font-specification:Laksaman;text-align:start;writing-mode:lr-tb;text-anchor:start"
               id="path2847" />
            <path
               d="m 280.20245,408.12203 q 0.30939,0 0.51565,0.23205 0.20626,0.23204 0.20626,0.55432 -0.0258,0.82505 -0.47698,1.58564 -0.4383,0.76059 -1.05709,1.05709 l -0.27072,-0.2965 q 1.00553,-0.67035 1.12155,-1.67587 -0.2965,0 -0.52854,-0.21916 -0.21916,-0.21915 -0.21916,-0.50276 0,-0.2965 0.20627,-0.51565 0.21915,-0.21916 0.50276,-0.21916 z"
               style="font-style:normal;font-variant:normal;font-weight:normal;font-stretch:normal;font-size:12.8914px;line-height:125%;font-family:Laksaman;-inkscape-font-specification:Laksaman;text-align:start;writing-mode:lr-tb;text-anchor:start"
               id="path2849" />
            <path
               d="m 293.34398,409.43695 h -0.77348 v -4.58932 h -4.91161 v 4.58932 h -0.77348 v -9.23021 h 0.77348 v 3.99632 h 4.91161 v -3.99632 h 0.77348 z"
               style="font-style:normal;font-variant:normal;font-weight:normal;font-stretch:normal;font-size:12.8914px;line-height:125%;font-family:Laksaman;-inkscape-font-specification:Laksaman;text-align:start;writing-mode:lr-tb;text-anchor:start"
               id="path2851" />
            <path
               d="m 301.26069,409.41117 -0.72192,0.16759 q -0.23204,-0.65746 -0.30939,-1.28914 -0.86372,1.32781 -2.47514,1.32781 -2.37201,0 -2.37201,-3.06814 v -3.69982 h 0.77348 v 3.55801 q 0,2.56538 1.76612,2.56538 0.91528,0 1.57274,-0.61878 0.65746,-0.63168 0.65746,-1.52118 v -3.98343 h 0.77348 v 4.97606 q 0,0.69613 0.33518,1.58564 z"
               style="font-style:normal;font-variant:normal;font-weight:normal;font-stretch:normal;font-size:12.8914px;line-height:125%;font-family:Laksaman;-inkscape-font-specification:Laksaman;text-align:start;writing-mode:lr-tb;text-anchor:start"
               id="path2853" />
            <path
               d="m 310.24516,402.70766 q 1.14733,0 1.74033,0.86372 0.593,0.86372 0.593,2.20442 v 3.66115 h -0.77348 v -3.64825 q 0,-1.08288 -0.43831,-1.75323 -0.42541,-0.68324 -1.32781,-0.68324 -0.7348,0 -1.31491,0.58011 -0.58012,0.58011 -0.58012,1.31492 v 4.18969 h -0.77348 v -3.99632 q 0,-2.0884 -1.66298,-2.0884 -0.76059,0 -1.37938,0.65746 -0.61878,0.65746 -0.61878,1.43094 v 3.99632 h -0.77348 v -4.96317 q 0,-0.58011 -0.12892,-1.62431 h 0.70903 q 0.12891,0.39963 0.15469,1.17311 0.7477,-1.31492 2.21732,-1.31492 1.3407,0 1.99816,1.46962 0.77348,-1.46962 2.35912,-1.46962 z"
               style="font-style:normal;font-variant:normal;font-weight:normal;font-stretch:normal;font-size:12.8914px;line-height:125%;font-family:Laksaman;-inkscape-font-specification:Laksaman;text-align:start;writing-mode:lr-tb;text-anchor:start"
               id="path2855" />
            <path
               d="m 316.19191,409.61743 q -0.87662,0 -1.4954,-0.50276 -0.60589,-0.51566 -0.60589,-1.32781 0,-2.46225 4.38306,-2.46225 0,-0.94107 -0.4512,-1.45673 -0.4512,-0.51565 -1.32781,-0.51565 -0.70902,0 -2.10129,0.4383 l -0.0902,-0.7348 q 1.08287,-0.34807 2.2431,-0.34807 2.50092,0 2.50092,2.75875 v 2.35912 q 0,0.81216 0.23204,1.61142 l -0.67035,0.14181 -0.27072,-1.06999 q -0.8895,1.10866 -2.34622,1.10866 z m -1.32781,-1.95949 q 0,0.6059 0.37385,0.96685 0.37385,0.34807 0.97974,0.34807 0.77348,0 1.50829,-0.47698 0.7477,-0.48987 0.7477,-1.186 v -1.34071 q -3.60958,0 -3.60958,1.68877 z"
               style="font-style:normal;font-variant:normal;font-weight:normal;font-stretch:normal;font-size:12.8914px;line-height:125%;font-family:Laksaman;-inkscape-font-specification:Laksaman;text-align:start;writing-mode:lr-tb;text-anchor:start"
               id="path2857" />
            <path
               d="m 326.80894,409.43695 h -0.77348 v -3.73849 q 0,-2.34623 -1.95949,-2.34623 -0.77348,0 -1.40515,0.65746 -0.63168,0.65746 -0.63168,1.43094 v 3.99632 h -0.77348 v -4.96317 q 0,-0.58011 -0.12892,-1.62431 h 0.72192 q 0.12891,0.39963 0.1547,1.17311 0.7477,-1.31492 2.21731,-1.31492 2.57827,0 2.57827,2.9908 z"
               style="font-style:normal;font-variant:normal;font-weight:normal;font-stretch:normal;font-size:12.8914px;line-height:125%;font-family:Laksaman;-inkscape-font-specification:Laksaman;text-align:start;writing-mode:lr-tb;text-anchor:start"
               id="path2859" />
            <path
               d="m 337.96199,405.00232 h -4.15102 v 4.43463 h -0.77348 v -9.23021 h 5.221 v 0.64456 h -4.44752 v 3.50645 h 4.15102 z"
               style="font-style:normal;font-variant:normal;font-weight:normal;font-stretch:normal;font-size:12.8914px;line-height:125%;font-family:Laksaman;-inkscape-font-specification:Laksaman;text-align:start;writing-mode:lr-tb;text-anchor:start"
               id="path2861" />
            <path
               d="m 342.82646,403.37801 q -0.0774,-0.0258 -0.23204,-0.0258 -0.85083,0 -1.44384,0.69613 -0.58011,0.68324 -0.58011,1.84347 v 3.54512 h -0.77348 v -4.43463 q 0,-1.45672 -0.19337,-2.15285 h 0.65746 q 0.20626,0.41252 0.20626,1.31491 0.61879,-1.45672 1.98527,-1.45672 0.18048,0 0.37385,0.0387 z"
               style="font-style:normal;font-variant:normal;font-weight:normal;font-stretch:normal;font-size:12.8914px;line-height:125%;font-family:Laksaman;-inkscape-font-specification:Laksaman;text-align:start;writing-mode:lr-tb;text-anchor:start"
               id="path2863" />
            <path
               d="m 344.76238,409.43695 h -0.77348 v -6.58748 h 0.77348 z m -0.41253,-9.20443 q 0.27072,0 0.43831,0.18048 0.18048,0.16759 0.18048,0.4383 0,0.27072 -0.18048,0.43831 -0.16759,0.1547 -0.43831,0.1547 -0.27071,0 -0.4383,-0.1547 -0.1547,-0.16759 -0.1547,-0.43831 0,-0.27071 0.1547,-0.4383 0.16759,-0.18048 0.4383,-0.18048 z"
               style="font-style:normal;font-variant:normal;font-weight:normal;font-stretch:normal;font-size:12.8914px;line-height:125%;font-family:Laksaman;-inkscape-font-specification:Laksaman;text-align:start;writing-mode:lr-tb;text-anchor:start"
               id="path2865" />
            <path
               d="m 347.06793,406.20122 q 0.0387,1.25046 0.7477,2.01105 0.72191,0.76059 1.92081,0.76059 1.12155,0 2.30755,-0.46409 l 0.0645,0.63168 q -1.14733,0.47698 -2.44936,0.47698 -1.48251,0 -2.42358,-0.91529 -0.94106,-0.92817 -0.94106,-2.3849 0,-1.55985 0.90239,-2.57827 0.91529,-1.03131 2.3849,-1.03131 2.77164,0 2.8361,3.49356 z m 4.57643,-0.64457 q -0.0258,-1.00552 -0.61879,-1.59853 -0.58011,-0.60589 -1.53407,-0.60589 -0.95396,0 -1.59853,0.63168 -0.64456,0.61878 -0.78637,1.57274 z"
               style="font-style:normal;font-variant:normal;font-weight:normal;font-stretch:normal;font-size:12.8914px;line-height:125%;font-family:Laksaman;-inkscape-font-specification:Laksaman;text-align:start;writing-mode:lr-tb;text-anchor:start"
               id="path2867" />
            <path
               d="m 359.5661,409.43695 h -0.77348 v -3.73849 q 0,-2.34623 -1.95949,-2.34623 -0.77348,0 -1.40516,0.65746 -0.63167,0.65746 -0.63167,1.43094 v 3.99632 h -0.77349 v -4.96317 q 0,-0.58011 -0.12891,-1.62431 h 0.72192 q 0.12891,0.39963 0.15469,1.17311 0.7477,-1.31492 2.21732,-1.31492 2.57827,0 2.57827,2.9908 z"
               style="font-style:normal;font-variant:normal;font-weight:normal;font-stretch:normal;font-size:12.8914px;line-height:125%;font-family:Laksaman;-inkscape-font-specification:Laksaman;text-align:start;writing-mode:lr-tb;text-anchor:start"
               id="path2869" />
            <path
               d="m 361.11225,406.05941 q 0,-1.44383 0.79927,-2.39779 0.81215,-0.95396 2.16575,-0.95396 1.6372,0 2.48803,1.39227 v -4.46041 h 0.77348 v 8.18601 q 0,1.16022 0.0516,1.61142 h -0.70903 q -0.0387,-0.50276 -0.0387,-1.16022 -0.91529,1.3407 -2.44936,1.3407 -1.44383,0 -2.26888,-0.99264 -0.81216,-1.00552 -0.81216,-2.56538 z m 3.18417,2.91345 q 0.95396,0 1.61142,-0.61878 0.65746,-0.63168 0.65746,-1.55986 v -1.09576 q 0,-0.99264 -0.68324,-1.66299 -0.67035,-0.68324 -1.66299,-0.68324 -1.12155,0 -1.72744,0.76059 -0.6059,0.76059 -0.6059,1.97238 0,2.88766 2.41069,2.88766 z"
               style="font-style:normal;font-variant:normal;font-weight:normal;font-stretch:normal;font-size:12.8914px;line-height:125%;font-family:Laksaman;-inkscape-font-specification:Laksaman;text-align:start;writing-mode:lr-tb;text-anchor:start"
               id="path2871" />
            <path
               d="m 371.88318,408.97286 -0.0773,0.64457 q -2.44936,-0.11602 -2.44936,-3.49356 v -6.48435 H 370.13 v 6.21363 q 0,0.73481 0.0645,1.23757 0.0645,0.50277 0.23204,0.96686 0.18048,0.46408 0.54144,0.69613 0.36096,0.21915 0.91528,0.21915 z"
               style="font-style:normal;font-variant:normal;font-weight:normal;font-stretch:normal;font-size:12.8914px;line-height:125%;font-family:Laksaman;-inkscape-font-specification:Laksaman;text-align:start;writing-mode:lr-tb;text-anchor:start"
               id="path2873" />
            <path
               d="m 375.79935,409.43695 q -1.14733,2.57827 -3.04236,3.02947 l -0.18048,-0.60589 q 1.65009,-0.37385 2.50092,-2.64273 0,-0.11602 -0.0516,-0.23205 l -2.73296,-6.13628 h 0.81215 l 2.46225,5.58195 2.30756,-5.58195 h 0.82504 z"
               style="font-style:normal;font-variant:normal;font-weight:normal;font-stretch:normal;font-size:12.8914px;line-height:125%;font-family:Laksaman;-inkscape-font-specification:Laksaman;text-align:start;writing-mode:lr-tb;text-anchor:start"
               id="path2875" />
          </g>
          <text
             xml:space="preserve"
             style="font-size:10.6716px;line-height:1.25;font-family:Roboto;-inkscape-font-specification:Roboto;letter-spacing:0px;word-spacing:0px;stroke-width:0.266791"
             x="415.77142"
             y="365.46875"
             id="text1"><tspan
               sodipodi:role="line"
               id="tspan1"
               style="font-style:normal;font-variant:normal;font-weight:normal;font-stretch:normal;font-family:Laksaman;-inkscape-font-specification:Laksaman;stroke-width:0.266791"
               x="415.77142"
               y="365.46875">®</tspan></text>
        </g>
      </g>
    </g>
  </g>
</svg>
