<svg width="28" height="16" viewBox="0 0 28 16" fill="none" xmlns="http://www.w3.org/2000/svg">
<path d="M0 8C0 3.58172 3.58172 0 8 0H20C24.4183 0 28 3.58172 28 8C28 12.4183 24.4183 16 20 16H8C3.58172 16 0 12.4183 0 8Z" fill="#2A2A2A"/>
<path d="M20 1H8C4.13401 1 1 4.13401 1 8C1 11.866 4.13401 15 8 15H20C23.866 15 27 11.866 27 8C27 4.13401 23.866 1 20 1Z" fill="#61D14E"/>
<path d="M25 8C25 10.7614 22.7614 13 20 13C17.2386 13 15 10.7614 15 8C15 5.23858 17.2386 3 20 3C22.7614 3 25 5.23858 25 8Z" fill="#2A2A2A"/>
</svg>
