<svg width="16" height="16" version="1.1" viewBox="0 0 16 16" xmlns="http://www.w3.org/2000/svg">
<path d="m0 13.1c0 1.6 1.31 2.91 2.91 2.91h3.33v-1.79h-3.33c-0.637 0-1.12-0.484-1.12-1.12v-10.2c0-0.637 0.484-1.12 1.12-1.12h10.2c0.637 0 1.12 0.484 1.12 1.12v10.2c0 0.637-0.484 1.12-1.12 1.12h-5.56v1.79h5.56c1.6 0 2.91-1.31 2.91-2.91v-10.2c0-1.6-1.31-2.91-2.91-2.91h-10.2c-1.6 0-2.91 1.31-2.91 2.91z" fill="#000000"/>
<path d="m6.05 16v-1.79h2v1.79z" fill="#000000"/>
<path d="m5.08 2.52c-1.62 0-2.73 1.52-2.73 3.14v1.73h2v-1.73c0-0.754 0.438-1.14 0.732-1.14s0.73 0.39 0.73 1.14v4.71c0 0.754-0.436 1.14-0.73 1.14s-0.732-0.39-0.732-1.14v-2.12h-2v2.12c0 1.62 1.11 3.14 2.73 3.14s2.73-1.52 2.73-3.14v-4.71c0-1.62-1.11-3.14-2.73-3.14z" fill="#000000"/>
<path d="m9.5 2.48c-0.552 0-1 0.448-1 1v9c0 0.552 0.448 1 1 1 0.552 0 1-0.448 1-1v-2.08l1.47 2.78c0.259 0.488 1.02 0.4 1.41 0.0137 0.394-0.387 0.315-0.951 0.0137-1.41l-1.78-3.8 1.78-3.8c0.234-0.5 0.381-1.03-0.0137-1.41-0.189-0.185-0.444-0.287-0.709-0.285-0.265 0.00233-0.581 0.0644-0.705 0.299l-1.47 2.78v-2.08c0-0.552-0.448-1-1-1z" fill="#000000"/>
<path d="m2.35 6.59h2v3h-2z" fill="#000000"/>
</svg>
