<svg width="16" height="16" version="1.1" viewBox="0 0 16 16" xmlns="http://www.w3.org/2000/svg">
<path d="m0 13.1c0 1.6 1.31 2.91 2.91 2.91h3.33v-1.79h-3.33c-0.637 0-1.12-0.484-1.12-1.12v-10.2c0-0.637 0.484-1.12 1.12-1.12h10.2c0.637 0 1.12 0.484 1.12 1.12v10.2c0 0.637-0.484 1.12-1.12 1.12h-5.56v1.79h5.56c1.6 0 2.91-1.31 2.91-2.91v-10.2c0-1.6-1.31-2.91-2.91-2.91h-10.2c-1.6 0-2.91 1.31-2.91 2.91z" fill="#000000"/>
<path d="m6.05 16v-1.79h2v1.79z" fill="#000000"/>
<path d="m4.82 3.82c-0.265 0-0.52 0.105-0.707 0.293-0.39 0.391-0.39 1.02 0 1.41l2.47 2.47-2.47 2.47c-0.39 0.391-0.39 1.02 0 1.41 0.391 0.39 1.02 0.39 1.41 0l2.47-2.47 2.47 2.47c0.391 0.39 1.02 0.39 1.41 0 0.39-0.391 0.39-1.02 0-1.41l-2.47-2.47 2.47-2.47c0.39-0.391 0.39-1.02 0-1.41-0.188-0.188-0.442-0.293-0.707-0.293s-0.52 0.105-0.707 0.293l-2.47 2.47-2.47-2.47c-0.188-0.188-0.442-0.293-0.707-0.293z" fill="#000000"/>
</svg>
