<svg width="16" height="16" version="1.1" viewBox="0 0 16 16" xmlns="http://www.w3.org/2000/svg">
 <path d="m16 2.91c0-1.6-1.31-2.91-2.91-2.91h-3.33v1.79h3.33c0.637 0 1.12 0.484 1.12 1.12v10.2c0 0.637-0.484 1.12-1.12 1.12h-10.2c-0.637 0-1.12-0.484-1.12-1.12v-10.2c0-0.637 0.484-1.12 1.12-1.12h5.56v-1.79h-5.56c-1.6 0-2.91 1.31-2.91 2.91v10.2c0 1.6 1.31 2.91 2.91 2.91h10.2c1.6 0 2.91-1.31 2.91-2.91z" fill="#000000"/>
 <path d="m13.5 7.99c0-0.0492-0.00785-0.0979-0.0156-0.146-0.00155-0.00966-0.00195-0.0195-0.00195-0.0293v-0.00195c0-0.0196-0.0103-0.0378-0.0156-0.0566-0.00459-0.0163-0.00876-0.0327-0.0137-0.0488-0.0189-0.0621-0.044-0.122-0.0742-0.18-0.00894-0.017-0.0176-0.0342-0.0273-0.0508-0.0403-0.0688-0.0882-0.133-0.145-0.189-0.00949-0.00949-0.0218-0.0159-0.0312-0.0254l-2.29-2.29c-0.39-0.388-1.02-0.388-1.41 0-0.394 0.391-0.394 1.03 0 1.42l0.6 0.6h-6.6c-0.552 0-1 0.448-1 1s0.448 1 1 1h6.61l-0.613 0.613c-0.388 0.39-0.388 1.02 0 1.41 0.39 0.388 1.02 0.388 1.41 0l2.2-2.2c0.0373-0.0373 0.084-0.064 0.121-0.102 0.118-0.12 0.202-0.268 0.248-0.43 0.0149-0.0525 0.0263-0.106 0.0332-0.16 0.00356-0.0279 0.00622-0.0559 0.00781-0.084 7.37e-4 -0.013 0.00161-0.026 0.00195-0.0391 6.7e-5 -0.0026 0-0.00521 0-0.00781v-0.00195-0.00195z" fill="#000000"/>
 <path d="m9.97 0v1.79h-2v-1.79z" fill="#000000"/>
</svg>
