<svg width="16" height="16" version="1.1" viewBox="0 0 16 16" xmlns="http://www.w3.org/2000/svg">
 <path d="m0 13.1c0 1.6 1.31 2.91 2.91 2.91h3.33v-1.79h-3.33c-0.637 0-1.12-0.484-1.12-1.12v-10.2c0-0.637 0.484-1.12 1.12-1.12h10.2c0.637 0 1.12 0.484 1.12 1.12v10.2c0 0.637-0.484 1.12-1.12 1.12h-5.56v1.79h5.56c1.6 0 2.91-1.31 2.91-2.91v-10.2c0-1.6-1.31-2.91-2.91-2.91h-10.2c-1.6 0-2.91 1.31-2.91 2.91z" fill="#000000"/>
 <path d="m2.49 8.03c0 0.0492 0.00785 0.0979 0.0156 0.146 0.00155 0.00966 0.00195 0.0195 0.00195 0.0293v0.00195c0 0.0196 0.0103 0.0378 0.0156 0.0566 0.00459 0.0163 0.00876 0.0327 0.0137 0.0488 0.0189 0.0621 0.044 0.122 0.0742 0.18 0.00894 0.017 0.0176 0.0342 0.0273 0.0508 0.0403 0.0688 0.0882 0.133 0.145 0.189 0.00949 0.00949 0.0218 0.0159 0.0312 0.0254l2.29 2.29c0.39 0.388 1.02 0.388 1.41 0 0.394-0.391 0.394-1.03 0-1.42l-0.6-0.6h6.6c0.552 0 1-0.448 1-1s-0.448-1-1-1h-6.61l0.613-0.613c0.388-0.39 0.388-1.02 0-1.41-0.39-0.388-1.02-0.388-1.41 0l-2.2 2.2c-0.0373 0.0373-0.084 0.064-0.121 0.102-0.118 0.12-0.202 0.268-0.248 0.43-0.0149 0.0525-0.0263 0.106-0.0332 0.16-0.00356 0.0279-0.00622 0.0559-0.00781 0.084-7.37e-4 0.013-0.00161 0.026-0.00195 0.0391-6.7e-5 0.0026 0 0.00521 0 0.00781v0.00195 0.00195z" fill="#000000"/>
 <path d="m6.05 16v-1.79h2v1.79z" fill="#000000"/>
</svg>
