<svg width="14.4" height="12" version="1.1" viewBox="0 0 14.4 12" xmlns="http://www.w3.org/2000/svg">
<path d="m0 8.86c0-0.315 0.113-0.666 0.344-0.88 0.214-0.2 0.546-0.262 0.839-0.261 0.289 6.82e-4 0.615 0.0641 0.825 0.261 0.23 0.215 0.344 0.565 0.344 0.88s-0.114 0.665-0.344 0.88c-0.211 0.197-0.537 0.261-0.825 0.261-0.293 6.92e-4 -0.625-0.0616-0.839-0.261-0.23-0.215-0.344-0.565-0.344-0.88z" fill="#000000"/>
<path d="m0 3.31c0-0.315 0.113-0.666 0.344-0.88 0.214-0.2 0.546-0.262 0.839-0.261 0.289 6.82e-4 0.615 0.0641 0.825 0.261 0.23 0.215 0.344 0.565 0.344 0.88s-0.114 0.665-0.344 0.88c-0.211 0.197-0.537 0.261-0.825 0.261-0.293 6.92e-4 -0.625-0.0616-0.839-0.261-0.23-0.215-0.344-0.565-0.344-0.88z" fill="#000000"/>
<path d="m8.75 0-3.66 9.82h-1.86l3.66-9.82z" fill="#000000"/>
<path d="m14.4 0-3.66 9.82h-1.86l3.66-9.82z" fill="#000000"/>
</svg>
