<svg width="24" height="24" version="1.1" viewBox="0 0 24 24" xmlns="http://www.w3.org/2000/svg">
  <g stroke="#3c3c3c" stroke-width="1.9706">
    <path d="m23.015 12.009a11.013 11.006 0 0 1-11.013 11.006 11.013 11.006 0 0 1-11.013-11.006 11.013 11.006 0 0 1 11.013-11.006 11.013 11.006 0 0 1 11.013 11.006z" fill="none" stroke-linecap="round"/>
    <path d="m18.337 11.984a6.4267 10.998 0 0 1-6.4267 10.998 6.4267 10.998 0 0 1-6.4267-10.998 6.4267 10.998 0 0 1 6.4267-10.998 6.4267 10.998 0 0 1 6.4267 10.998z" fill="none" stroke-linecap="round"/>
    <path d="m23.011 11.999a11.013 11.006 0 0 1-11.013 11.006 11.013 11.006 0 0 1-11.013-11.006 11.013 11.006 0 0 1 11.013-11.006 11.013 11.006 0 0 1 11.013 11.006z" fill="#ffff00" stroke-linecap="round"/>
    <path d="m12.002 1.0178v21.982" fill="none"/>
    <path d="m23 12.009h-21.996" fill="none"/>
    <path d="m20.701 17.77c-2.3205-0.63977-4.961-1.0128-8.6942-1.0128-3.7424 0-6.387 0.37473-8.7109 1.0176" fill="none" stroke-linecap="round"/>
    <path d="m3.1402 6.2504v6.95e-5c2.3623 0.67005 5.0389 1.0655 8.8667 1.0655 3.8223 0 6.4965-0.3937 8.8571-1.0619" fill="none" stroke-linecap="round"/>
  </g>
</svg>
