<svg width="24" height="24" version="1.1" viewBox="0 0 24 24" xmlns="http://www.w3.org/2000/svg">
  <path d="m23.014 12.004c0 3.0406-1.2328 5.7933-3.226 7.7859-1.9932 1.9926-4.7468 3.225-7.7884 3.225-3.0415 0-5.7951-1.2324-7.7884-3.225-1.9932-1.9926-3.226-4.7453-3.226-7.7859 0-3.0406 1.2328-5.7933 3.226-7.7859 1.9932-1.9926 4.7468-3.225 7.7884-3.225 3.0415 0 5.7952 1.2324 7.7884 3.225 1.9932 1.9926 3.226 4.7453 3.226 7.7859z" fill="#60678B" stroke="#3c3c3c" stroke-linecap="round" stroke-width="1"/>
  <path d="m18.34 11.989c0 3.0384-0.71943 5.7891-1.8826 7.7803-1.1632 1.9911-2.77 3.2227-4.5449 3.2227s-3.3818-1.2316-4.5449-3.2227c-1.1632-1.9911-1.8826-4.7419-1.8826-7.7803 0-3.0384 0.71943-5.7891 1.8826-7.7803 1.1632-1.9911 2.77-3.2227 4.5449-3.2227s3.3818 1.2316 4.5449 3.2227c1.1632 1.9911 1.8826 4.7419 1.8826 7.7803z" fill="none" stroke="#3c3c3c" stroke-linecap="round" stroke-width="1"/>
  <path d="m12.004 1.0174v21.992" fill="none" stroke="#3c3c3c" stroke-width="1"/>
  <path d="m23.003 12.014h-21.999" fill="none" stroke="#3c3c3c" stroke-width="1"/>
  <path d="m20.704 17.777c-2.3208-0.64006-4.9616-1.0133-8.6953-1.0133-3.7429 0-6.3878 0.3749-8.712 1.0181" fill="none" stroke="#3c3c3c" stroke-linecap="round" stroke-width="1"/>
  <path d="m3.1408 6.2524v6.95e-5c2.3626 0.67035 5.0395 1.066 8.8678 1.066 3.8228 0 6.4973-0.39388 8.8582-1.0624" fill="none" stroke="#3c3c3c" stroke-linecap="round" stroke-width="1"/>
</svg>
