<?xml version="1.0" encoding="UTF-8"?>
<svg width="32" height="32" version="1.1" viewBox="0 0 32 32" xmlns="http://www.w3.org/2000/svg">
 <path d="m16-6.9938e-7c8.8366-3.8626e-7 16 7.1634 16 16 0 8.8366-7.1634 16-16 16-8.8366 0-16-7.1634-16-16-3.8626e-7 -8.8366 7.1634-16 16-16z" fill="#61D14E"/>
 <path d="m15 8c0.27614 0 0.5 0.22386 0.5 0.5v2.5h3v-2.5c0-0.27614 0.22386-0.5 0.5-0.5 0.2761 0 0.5 0.22386 0.5 0.5v2.5h1c0.2761 0 0.5 0.22386 0.5 0.5v3c0 1.933-1.567 3.5-3.5 3.5-0.0021 0.4339-0.01089 0.8445-0.04063 1.2192-0.04083 0.5145-0.1251 1.0037-0.31669 1.4252-0.19838 0.4364-0.50809 0.7914-0.96981 1.0274-0.44776 0.2288-1.0039 0.3282-1.6729 0.3282-0.99755 0-1.6097 0.3301-1.9744 0.7176-0.37583 0.3994-0.52561 0.8985-0.52561 1.2824h-1c0-0.6161 0.23218-1.367 0.79734-1.9676 0.57628-0.6125 1.4641-1.0324 2.7027-1.0324 0.58101 0 0.96239-0.0881 1.2178-0.2187 0.2414-0.1233 0.40044-0.2996 0.51456-0.5507 0.12091-0.266 0.19289-0.6206 0.23018-1.0905 0.02696-0.3397 0.03454-0.7175 0.03667-1.1401-1.9326-4.5e-4 -3.4992-1.5673-3.4992-3.5v-3c0-0.27614 0.22386-0.5 0.5-0.5h1v-2.5c0-0.27614 0.22386-0.5 0.5-0.5z" fill="#262938"/>
</svg>
