<svg width="26.749" height="24" version="1.1" viewBox="0 0 26.749 24" xmlns="http://www.w3.org/2000/svg">
  <path d="m7.5733 17.486c0.52024 0.62816 0.3857 1.5922-0.30164 2.1614l-4.7752 3.9548c-0.68736 0.56927-1.6595 0.52188-2.1798-0.10621-0.52023-0.62812-0.38569-1.5921 0.30168-2.1614l4.7752-3.9548c0.68736-0.56927 1.6595-0.52188 2.1798 0.10621z" fill="#3c3c3c" stroke-linecap="round" stroke-width="1.9108"/>
  <path d="m22.045 0.70458 4.2037 4.8443c0.74045 0.8533 0.64959 2.1363-0.20372 2.8768l-4.6901 4.0699c-0.85329 0.74045-2.1363 0.64959-2.8768-0.20372l-4.2036-4.8443c-0.74045-0.8533-0.64961-2.1363 0.20368-2.8768l4.6901-4.0699c0.85329-0.74045 2.1363-0.64959 2.8768 0.20372z" fill="#666666" stroke-linecap="round" stroke-width="1.0304"/>
  <path d="m17.617 7.6247 1.1564 1.3327c2.0367 2.347 1.7868 5.8762-0.56025 7.9128l-3.8304 3.3238c-2.347 2.0366-5.8762 1.7868-7.9128-0.56028l-1.1564-1.3327c-2.0366-2.3471-1.7868-5.8761 0.56027-7.9128l3.8304-3.3238c2.347-2.0367 5.8762-1.7868 7.9128 0.56024z" fill="#3c3c3c" stroke-linecap="round" stroke-width="1.0304"/>
  <path d="m6.5062 16.847 1.4717 1.696c0.60036 0.69184 0.5267 1.7322-0.16517 2.3325-0.69186 0.60034-1.7322 0.52668-2.3325-0.16516l-1.4717-1.696c-0.60036-0.69188-0.5267-1.7322 0.16517-2.3325 0.69186-0.60038 1.7322-0.52672 2.3325 0.16517z" fill="#3c3c3c" stroke-linecap="round" stroke-width="1.0304"/>
  <path d="m19.779 3.7353 0.02419 0.026457c0.23633 0.2725 0.39444 0.51946 0.35452 0.55412l-2.059 1.7867c-0.03991 0.034016-0.2623-0.15685-0.49862-0.42905l-0.02419-0.026456c-0.2363-0.27213-0.39442-0.51942-0.35448-0.55408l2.059-1.7867c0.03991-0.034016 0.2623 0.15685 0.49861 0.42905z" fill="#ffffff" stroke-linecap="round" stroke-width="1.0304"/>
  <path d="m22.905 7.3369 0.02268 0.026457c0.23622 0.27213 0.39439 0.51946 0.35452 0.55408l-2.059 1.7867c-0.04007 0.034016-0.2623-0.15685-0.49859-0.42901l-0.02419-0.026456c-0.2363-0.27251-0.39442-0.51942-0.35448-0.55408l2.059-1.7867c0.04007-0.034016 0.2623 0.15685 0.4986 0.42901z" fill="#ffffff" stroke-linecap="round" stroke-width="1.0304"/>
  <path d="m14.162 3.6429 8.0669 9.2962c0.12246 0.14098 0.10734 0.35339-0.03402 0.4758l-8.1526 7.0745c-0.14113 0.12246-0.35331 0.10772-0.47583-0.03402l-8.0668-9.2962c-0.12242-0.14098-0.10745-0.35339 0.033638-0.4758l8.1526-7.0745c0.14113-0.12246 0.35331-0.10734 0.47581 0.034016z" fill="#3c3c3c" stroke-linecap="round" stroke-width="1.0304"/>
  <path d="m17.853 5.8934c-0.18674-0.16871-0.60166-0.689-0.60166-0.75446 0-0.04148 1.9603-1.7482 2.0454-1.7809 0.06489-0.024899 0.64364 0.57105 0.77393 0.79693l0.0785 0.13609-1.0086 0.87081c-0.55474 0.47894-1.0291 0.87764-1.0542 0.886-0.02506 0.00835-0.13011-0.061179-0.23343-0.15452z" fill="#3c3c3c" stroke="#3c3c3c" stroke-width=".5"/>
  <path d="m20.861 9.3628c-0.28887-0.30335-0.47749-0.54915-0.47749-0.62224 0-0.039541 1.8686-1.6891 2.0101-1.7745 0.038-0.022904 0.12692 0.024983 0.24582 0.13239 0.23656 0.21371 0.60832 0.70595 0.59058 0.78197-0.01765 0.075644-1.972 1.7703-2.0416 1.7703-0.02932 0-0.17668-0.12956-0.32747-0.28791z" fill="#3c3c3c" stroke="#3c3c3c" stroke-width=".5"/>
</svg>
