<?xml version="1.0" encoding="UTF-8"?>
<svg width="24" height="24" version="1.1" viewBox="0 0 24 24" xmlns="http://www.w3.org/2000/svg">
<path d="m10.727 2.2835e-6h2.7721c0.3113 0 0.48157 0.26116 0.56191 0.56191l1.0697 4.0039c0.12446 0.46589-0.38823 0.87047-0.87047 0.87047h-4.2943c-0.48224 0-0.99493-0.40458-0.87047-0.87047l1.0697-4.0039c0.080351-0.30074 0.25062-0.56191 0.56192-0.56191z" fill="#60678B"/>
<path d="m13.499 24h-2.7721c-0.3113 0-0.48157-0.26116-0.56191-0.56191l-1.0697-4.0039c-0.12446-0.46589 0.38823-0.87047 0.87047-0.87047h4.2943c0.48224 0 0.99493 0.40458 0.87047 0.87047l-1.0697 4.0039c-0.08035 0.30074-0.25061 0.56191-0.56192 0.56191z" fill="#60678B"/>
<path d="m9.4647 3.184 0.00119 4.7884c0.70498-0.41248 1.6604-0.7341 2.5361-0.7341 1.096-6.9e-5 2.1857 0.44984 2.7644 0.88451l0.0039-4.8752z" fill="#60678b"/>
<path d="m9.6016 3.1387c-3.9055 1.0548-6.7795 4.6223-6.7793 8.8613 4.418e-4 5.0687 4.109 9.1779 9.1777 9.1777 5.0682-4.42e-4 9.1773-4.1095 9.1777-9.1777 1.85e-4 -4.2393-2.8733-7.8068-6.7793-8.8613l-0.32452 4.5814c0.52216 0.22199 1.0046 0.62408 1.2932 0.91276 0.86172 0.86169 1.3946 2.0523 1.3946 3.3672-2.49e-4 1.3147-0.53284 2.5057-1.3945 3.3672-0.86169 0.8615-2.0525 1.3946-3.3672 1.3945-1.3147 8.3e-5 -2.5036-0.53311-3.3652-1.3945-0.8616-0.86142-1.3962-2.0525-1.3965-3.3672-8.29e-5 -1.3149 0.53279-2.5056 1.3945-3.3672 0.28818-0.28818 0.59016-0.573 1.2754-0.88985z" fill="#60678b"/>
<path d="m24 10.614v2.7721c0 0.3113-0.26116 0.48157-0.56191 0.56191l-4.0039 1.0697c-0.46589 0.12446-0.87047-0.38823-0.87047-0.87047v-4.2943c0-0.48224 0.40458-0.99493 0.87047-0.87047l4.0039 1.0697c0.30074 0.08035 0.56191 0.25062 0.56191 0.56192z" fill="#60678B"/>
<path d="m-2.53e-6 13.386v-2.7721c0-0.3113 0.26116-0.48157 0.56191-0.56191l4.0039-1.0697c0.46589-0.12446 0.87047 0.38823 0.87047 0.87047v4.2943c0 0.48224-0.40458 0.99493-0.87047 0.87047l-4.0039-1.0697c-0.30074-0.08035-0.56191-0.25061-0.56191-0.56192z" fill="#60678B"/>
<path d="m2.5346 4.4948 1.9602-1.9602c0.22012-0.22012 0.52519-0.15585 0.79466-4.3e-6l3.5875 2.0748c0.41744 0.24143 0.341 0.89004 4.3e-6 1.231l-3.0365 3.0365c-0.341 0.341-0.98961 0.41744-1.231-1.4e-6l-2.0748-3.5875c-0.15584-0.26947-0.22012-0.57454 5.7e-6 -0.79466z" fill="#60678B"/>
<path d="m21.465 19.505-1.9602 1.9602c-0.22012 0.22012-0.52519 0.15585-0.79466 4e-6l-3.5875-2.0748c-0.41744-0.24143-0.341-0.89003-4e-6 -1.231l3.0365-3.0365c0.341-0.341 0.98961-0.41744 1.231 2e-6l2.0748 3.5875c0.15584 0.26947 0.22012 0.57454-6e-6 0.79466z" fill="#60678B"/>
<path d="m21.465 4.4948-1.9602-1.9602c-0.22012-0.22012-0.52519-0.15585-0.79466-4.3e-6l-3.5875 2.0748c-0.41744 0.24143-0.341 0.89004-5e-6 1.231l3.0365 3.0365c0.341 0.341 0.98961 0.41744 1.231-1.4e-6l2.0748-3.5875c0.15584-0.26947 0.22012-0.57454-6e-6 -0.79466z" fill="#60678B"/>
<path d="m2.5346 19.505 1.9602 1.9602c0.22012 0.22012 0.52519 0.15585 0.79466 4e-6l3.5875-2.0748c0.41744-0.24143 0.341-0.89003 4.3e-6 -1.231l-3.0365-3.0365c-0.341-0.341-0.98961-0.41744-1.231 2e-6l-2.0748 3.5875c-0.15584 0.26947-0.22012 0.57454 5.7e-6 0.79466z" fill="#60678B"/>
</svg>
