<?xml version="1.0" encoding="UTF-8"?>
<svg width="24" height="24" version="1.1" viewBox="0 0 24 24" xmlns="http://www.w3.org/2000/svg">
 <path d="m12 0c-3.822 0-7.2243 1.7894-9.4218 4.5732h1.998c0.96932-0.96884 2.1294-1.7474 3.416-2.2793-0.32796 0.42609-0.62841 0.89481-0.89649 1.3975-0.14954 0.2804-0.28838 0.57656-0.42188 0.88184h1.6583c0.029396-0.057669 0.05785-0.11946 0.087891-0.17579 0.82781-1.5522 1.826-2.4761 2.8301-2.7833v2.9591h1.5v-2.9591c1.0041 0.3071 2.0024 1.2311 2.8301 2.7833 0.03006 0.056322 0.05849 0.11811 0.08788 0.17579h1.6583c-0.13351-0.30528-0.27234-0.60144-0.42187-0.88184-0.26805-0.50265-0.56844-0.97137-0.89649-1.3975 1.2867 0.53193 2.4467 1.3105 3.416 2.2793h1.998c-2.1975-2.7839-5.5998-4.5732-9.4218-4.5732z" fill="#9095ae" stroke-width="1.5"/>
 <path d="m3.0615 3.9962c-1.4702 1.6406-2.4926 3.6882-2.8829 5.9532h1.5264c0.30795-1.5537 0.95481-2.9852 1.8662-4.2099 0.70398 0.38637 1.4924 0.72111 2.3468 0.99903-0.26978 1.0012-0.46128 2.082-0.56837 3.2109h1.5089c0.10176-0.99545 0.27014-1.94 0.50391-2.8095 1.2126 0.28011 2.523 0.45173 3.8877 0.49805v2.3115h1.5v-2.3115c1.3647-0.04632 2.6751-0.21794 3.8877-0.49805 0.23379 0.86963 0.40217 1.8141 0.50391 2.8095h1.5089c-0.10704-1.1289-0.29858-2.2098-0.56837-3.2109 0.85425-0.27792 1.6428-0.61266 2.3468-0.99903 0.91145 1.2249 1.5582 2.6564 1.8662 4.2099h1.5264c-0.3903-2.2649-1.4126-4.3125-2.8829-5.9532h-2.1446c0.217 0.1844 0.4286 0.37596 0.62988 0.57716-0.5421 0.27576-1.1443 0.52284-1.796 0.73535-0.17242-0.46344-0.36765-0.89765-0.57422-1.3125h-1.7051c0.0782 0.13108 0.15597 0.25985 0.23145 0.40137 0.2148 0.40253 0.41517 0.83898 0.59472 1.3066-1.0578 0.23594-2.2106 0.38652-3.4248 0.43067v-2.1387h-1.5v2.1387c-1.2143-0.044145-2.367-0.19473-3.4248-0.43067 0.17946-0.46766 0.38003-0.90411 0.59472-1.3066 0.075476-0.14152 0.15326-0.27029 0.23145-0.40137h-1.7051c-0.20657 0.41486-0.40179 0.84906-0.57422 1.3125-0.65163-0.21251-1.2537-0.45959-1.796-0.73535 0.2013-0.2012 0.41286-0.39276 0.62988-0.57716z" fill="#9095ae" stroke-width="1.5"/>
 <path d="m2.5782 19.427c2.1975 2.7839 5.5998 4.5732 9.4218 4.5732 3.8222 0 7.2243-1.7894 9.4218-4.5732h-1.998c-0.9693 0.96885-2.1293 1.7474-3.416 2.2793 0.32805-0.426 0.62844-0.89481 0.89649-1.3975 0.14954-0.28038 0.28836-0.57653 0.42188-0.88184h-1.6583c-0.0294 0.05767-0.05784 0.11944-0.08788 0.17578-0.82775 1.5522-1.826 2.4762-2.8301 2.7833v-2.9591h-1.5v2.9591c-1.0042-0.30705-2.0022-1.231-2.8301-2.7833-0.030041-0.056325-0.058496-0.11811-0.087891-0.17578h-1.6583c0.1335 0.30531 0.27234 0.60146 0.42188 0.88184 0.26808 0.50265 0.56855 0.97146 0.89649 1.3975-1.2866-0.5319-2.4467-1.3104-3.416-2.2793z" fill="#9095ae" stroke-width="1.5"/>
 <path d="m0.17871 14.051c0.39032 2.2649 1.4126 4.3125 2.8829 5.9532h2.1474c-0.21797-0.18508-0.4307-0.37514-0.63282-0.57716 0.54224-0.2757 1.1443-0.52281 1.796-0.73535 0.17243 0.46344 0.36765 0.89765 0.57422 1.3125h1.7051c-0.078195-0.13108-0.15597-0.25984-0.23145-0.40137-0.2147-0.4026-0.41526-0.83909-0.59472-1.3066 1.0578-0.23595 2.2106-0.38642 3.4248-0.43066v2.1387h1.5v-2.1387c1.2143 0.04425 2.367 0.19472 3.4248 0.43066-0.17955 0.46755-0.37992 0.90404-0.59472 1.3066-0.07547 0.14152-0.15326 0.27028-0.23145 0.40137h1.7051c0.20658-0.41486 0.4018-0.84906 0.57422-1.3125 0.6516 0.21255 1.2538 0.45964 1.796 0.73535-0.20211 0.20202-0.41486 0.39207-0.63282 0.57716h2.1474c1.4702-1.6406 2.4926-3.6882 2.8829-5.9532h-1.5264c-0.30795 1.5537-0.95477 2.9852-1.8662 4.2099-0.70395-0.38625-1.4924-0.72108-2.3468-0.99903 0.26978-1.0011 0.46132-2.082 0.56837-3.2109h-1.5089c-0.10173 0.99542-0.27011 1.94-0.50391 2.8095-1.2126-0.28005-2.523-0.4517-3.8877-0.49804v-2.3115h-1.5v2.3115c-1.3647 0.04635-2.6751 0.218-3.8877 0.49804-0.23376-0.86963-0.40215-1.8141-0.50391-2.8095h-1.5089c0.10708 1.1289 0.29859 2.2098 0.56837 3.2109-0.85427 0.27795-1.6427 0.61278-2.3468 0.99903-0.9114-1.2248-1.5582-2.6564-1.8662-4.2099z" fill="#9095ae" stroke-width="1.5"/>
 <path d="m0.41016 8.8829c-0.26664 0.99399-0.41016 2.0391-0.41016 3.1172 0 1.0781 0.14352 2.1233 0.41016 3.1172h1.5645c-0.23522-0.7569-0.39041-1.5476-0.44825-2.3672h3.7353c0.027543 0.81212 0.10125 1.6041 0.21387 2.3672h1.5206c-0.12112-0.75614-0.20156-1.5453-0.23145-2.3672h4.4853v2.3672h1.5v-2.3672h4.4853c-0.02989 0.82194-0.11034 1.611-0.23145 2.3672h1.5206c0.11259-0.76305 0.18632-1.5551 0.21387-2.3672h3.7353c-0.05784 0.81957-0.21302 1.6103-0.44824 2.3672h1.5645c0.26664-0.99401 0.41016-2.0391 0.41016-3.1172 0-1.0781-0.14352-2.1233-0.41016-3.1172h-1.5645c0.23522 0.7569 0.3904 1.5477 0.44824 2.3672h-3.7353c-0.027552-0.8121-0.10128-1.6041-0.21387-2.3672h-1.5206c0.1211 0.75615 0.20156 1.5453 0.23145 2.3672h-4.4853v-2.3672h-1.5v2.3672h-4.4853c0.029896-0.82194 0.11033-1.611 0.23145-2.3672h-1.5206c-0.11262 0.76305-0.18633 1.5551-0.21387 2.3672h-3.7353c0.057842-0.81956 0.21302-1.6103 0.44825-2.3672z" fill="#9095ae" stroke-width="1.5"/>
</svg>
