<svg width="24" height="24" version="1.1" viewBox="0 0 24 24" xmlns="http://www.w3.org/2000/svg">
<path d="m12 7.1307c-2.6888 0-4.869 2.1802-4.869 4.869 0 0.38023 0.046454 0.74934 0.1289 1.1045h1.5586c-0.12027-0.3463-0.1875-0.71721-0.1875-1.1045 0-1.8604 1.5087-3.3691 3.3691-3.3691 1.8604 0 3.3691 1.5087 3.3691 3.3691 0 0.38726-0.06723 0.75816-0.1875 1.1045h1.5615c0.08241-0.35504 0.12598-0.72435 0.12598-1.1045 0-2.6888-2.1802-4.869-4.869-4.869z" fill="#9095ae" stroke-width="1.5"/>
<path d="m12 0c-1.1494 3.7499e-7 -2.2993 0.67224-2.6953 2.0157l-0.14062 0.47753c-0.23583 0.80008-1.1483 1.1783-1.8808 0.77928l-0.43945-0.2373c-2.4598-1.3398-5.1483 1.3488-3.8086 3.8086l0.2373 0.43945c0.39899 0.73249 0.020802 1.645-0.77928 1.8808l-0.47753 0.14062c-1.3434 0.39595-2.0157 1.5459-2.0157 2.6953 1.2329e-7 0.3779 0.080361 0.75334 0.22558 1.1045h1.8808c-0.90442-0.55847-0.79407-2.0287 0.33398-2.3613l0.47753-0.14062c1.7167-0.50598 2.5289-2.4653 1.6728-4.037l-0.24024-0.43652c-0.62444-1.1464 0.63191-2.4027 1.7782-1.7782l0.43652 0.24024c1.5717 0.85609 3.5311 0.043865 4.037-1.6728l0.14062-0.47753c0.36908-1.2522 2.1445-1.2522 2.5136 0l0.14062 0.47753c0.50598 1.7167 2.4653 2.5289 4.037 1.6728l0.43652-0.24024c1.1464-0.62445 2.4026 0.63191 1.7782 1.7782l-0.24024 0.43652c-0.85618 1.5717-0.04389 3.5311 1.6728 4.037l0.47753 0.14062c1.1281 0.3325 1.2384 1.8028 0.33398 2.3613h1.8808c0.14523-0.35111 0.22558-0.72657 0.22558-1.1045 0-1.1494-0.67221-2.2993-2.0157-2.6953l-0.47753-0.14062c-0.80008-0.23583-1.1783-1.1483-0.77928-1.8808l0.2373-0.43945c1.3399-2.4598-1.3487-5.1483-3.8086-3.8086l-0.43945 0.2373c-0.73244 0.39899-1.645 0.020802-1.8808-0.77928l-0.14062-0.47753c-0.39595-1.3434-1.5459-2.0157-2.6953-2.0157z" fill="#9095ae" stroke-width="1.5"/>
<path d="m7.2596 10.895c-0.082449 0.35513-0.1289 0.72424-0.1289 1.1045 0 2.6888 2.1802 4.869 4.869 4.869 2.6888 0 4.869-2.1802 4.869-4.869 0-0.38011-0.04357-0.74943-0.12598-1.1045h-1.5615c0.12027 0.34631 0.1875 0.71721 0.1875 1.1045 0 1.8604-1.5087 3.3691-3.3691 3.3691-1.8604 0-3.3691-1.5087-3.3691-3.3691 0-0.38726 0.067227-0.75816 0.1875-1.1045h-1.5586z" fill="#9095ae" stroke-width="1.5"/>
<path d="m0.22564 10.895c-0.14522 0.35111-0.22558 0.72657-0.22558 1.1045 3.7499e-7 1.1494 0.67224 2.2993 2.0157 2.6953l0.47753 0.14062c0.80008 0.23577 1.1783 1.1484 0.77928 1.8808l-0.2373 0.43945c-1.3398 2.4598 1.3488 5.1485 3.8086 3.8086l0.43945-0.2373c0.73249-0.39899 1.645-0.0208 1.8808 0.77928l0.14062 0.47753c0.39595 1.3434 1.5459 2.0157 2.6953 2.0157 1.1494 0 2.2993-0.67221 2.6953-2.0157l0.14062-0.47753c0.23577-0.80008 1.1484-1.1783 1.8808-0.77928l0.43945 0.2373c2.4598 1.3399 5.1485-1.3487 3.8086-3.8086l-0.2373-0.43945c-0.39899-0.73244-0.02081-1.645 0.77928-1.8808l0.47753-0.14062c1.3434-0.39595 2.0157-1.5459 2.0157-2.6953 0-0.3779-0.08035-0.75334-0.22558-1.1045h-1.8808c0.90442 0.55847 0.79408 2.0287-0.33398 2.3613l-0.47753 0.14062c-1.7167 0.50598-2.5289 2.4653-1.6728 4.037l0.24024 0.43652c0.62444 1.1464-0.63186 2.4026-1.7782 1.7782l-0.43652-0.24024c-1.5717-0.85618-3.5311-0.04389-4.037 1.6728l-0.14062 0.47753c-0.36908 1.2522-2.1445 1.2522-2.5136 0l-0.14062-0.47753c-0.50598-1.7167-2.4653-2.5289-4.037-1.6728l-0.43652 0.24024c-1.1464 0.62444-2.4027-0.63186-1.7782-1.7782l0.24024-0.43652c0.85609-1.5717 0.043865-3.5311-1.6728-4.037l-0.47753-0.14062c-1.1281-0.3325-1.2384-1.8028-0.33398-2.3613h-1.8808z" fill="#9095ae" stroke-width="1.5"/>
</svg>
