<svg width="32" height="32" version="1.1" viewBox="0 0 32 32" xmlns="http://www.w3.org/2000/svg">
<path d="m16-6.9938e-7c8.8366-3.8626e-7 16 7.1634 16 16 0 8.8366-7.1634 16-16 16-8.8366 0-16-7.1634-16-16-3.8626e-7 -8.8366 7.1634-16 16-16z" fill="#FED722"/>
<path d="m14 10c0.21025 0 0.39804 0.13153 0.4699 0.32913l3.5301 9.7078 1.5301-4.2078c0.0719-0.1976 0.2596-0.32913 0.4699-0.32913h3.5c0.2761 0 0.5 0.22386 0.5 0.5s-0.2239 0.5-0.5 0.5h-3.1498l-1.8803 5.1709c-0.0719 0.1976-0.2596 0.3291-0.4699 0.3291-0.21025 0-0.39804-0.1315-0.4699-0.3291l-3.5301-9.7078-1.5301 4.2078c-0.07186 0.1976-0.25965 0.32913-0.4699 0.32913h-3.5c-0.27614 0-0.5-0.22386-0.5-0.5s0.22386-0.5 0.5-0.5h3.1498l1.8803-5.1709c0.07186-0.1976 0.25965-0.32913 0.4699-0.32913z" fill="#262938"/>
</svg>
