<svg width="150" height="59" viewBox="0 0 150 59" fill="none" xmlns="http://www.w3.org/2000/svg">
<path d="M33.8788 49.0345C31.6302 52.2916 27.6701 55.5721 22.5674 56.1286C19.1216 56.5044 15.9915 55.9244 13.1991 54.7335C10.7637 53.6949 8.63143 51.7261 7.21883 49.8876C5.80624 48.0491 4.23368 44.6245 3.88952 42.6682C3.54536 40.7119 3.57457 37.9748 4.07424 35.413C4.47398 33.3635 5.47921 30.2098 5.92759 29.0633C5.45135 27.9169 4.56034 25.7987 4.22034 24.7483C3.79534 23.4352 3.42212 22.2071 3.06724 20.4333C2.69605 18.5779 2.4334 17.0586 2.53152 15.1447C2.62965 13.2308 3.36481 10.9756 4.01745 9.63561C4.6701 8.29565 5.88518 6.74343 6.96168 5.84047C8.03818 4.93752 10.5773 3.48252 12.1368 3.31244C13.6963 3.14237 13.7979 3.85637 14.0376 5.06881C14.5095 4.63469 15.6667 3.68276 16.5204 3.34798C17.5876 2.92951 19.319 2.43856 20.9454 2.35182C22.5718 2.26509 22.9362 2.98052 23.0196 3.51519C23.1029 4.04987 22.5612 5.61939 22.1396 6.93415C21.718 8.24892 21.8404 9.74601 21.7777 10.5685C21.715 11.391 21.7551 13.4627 21.8635 14.5324C21.9719 15.6022 22.0685 18.6199 21.7515 21.6827C25.7021 21.4682 29.889 24.1868 32.0101 26.5511C34.1313 28.9155 36.8018 33.7773 36.9507 38.4283C37.0678 42.0834 36.3587 45.4423 33.8788 49.0345Z" fill="#FAFAFA" />
<path d="M19.7671 4.34136C19.7786 4.34034 19.7874 4.33957 19.8043 4.33772C20.0465 4.31132 20.3244 4.29916 20.5583 4.3929C20.6941 4.44729 20.8314 4.54341 20.9281 4.70049C21.0214 4.85199 21.0465 5.01097 21.048 5.13773C21.0507 5.36478 20.9762 5.60873 20.9102 5.80562C20.8703 5.92465 20.818 6.06888 20.7621 6.22264C20.7219 6.33323 20.68 6.44876 20.6396 6.56338C20.2379 7.70329 19.679 9.59521 19.9768 12.5359C20.321 15.9336 20.2783 20.2473 19.8431 23.489C25.7061 23.0747 29.4639 25.7766 31.7798 28.962C34.1605 32.2367 35.0194 36.0158 35.1629 37.4331C36.0265 45.9579 30.0506 53.6044 21.8237 54.5016C13.5968 55.3988 6.21936 49.2088 5.35581 40.6838C4.96248 36.8008 6.15641 33.1327 7.81091 29.2483C6.5988 26.8264 4.91682 22.0284 4.37617 18.5299L4.37617 18.5299C3.72832 14.3361 5.10475 11.0728 6.84259 8.84741C7.70909 7.73781 8.66754 6.88251 9.51647 6.29062C9.94099 5.99464 10.343 5.76112 10.6977 5.59399C11.0434 5.43109 11.3754 5.31626 11.6528 5.28601C11.756 5.27476 11.8624 5.26608 11.9606 5.26838C12.0493 5.27046 12.193 5.28159 12.3341 5.35571C12.5107 5.44857 12.631 5.61174 12.6742 5.80695C12.7087 5.96263 12.6867 6.10649 12.6694 6.19283C12.6398 6.34102 12.5752 6.53223 12.51 6.72538C12.4997 6.75578 12.4895 6.78622 12.4793 6.81654C12.3973 7.06124 12.2974 7.36806 12.1942 7.75793C11.7834 9.30887 11.2982 12.2582 11.8479 17.685C12.1267 20.4372 11.9881 22.8725 11.623 25.2518C12.4602 24.9504 13.3927 24.6738 14.4308 24.4224C13.3034 21.3205 12.3431 16.9283 11.9865 13.408C11.6631 10.2153 13.1352 7.9979 14.8885 6.57427C16.604 5.18126 18.6252 4.51127 19.6315 4.35879C19.6408 4.35689 19.6502 4.35524 19.6597 4.35385C19.6981 4.34822 19.7237 4.34533 19.7495 4.34295C19.7565 4.3423 19.7621 4.34181 19.7671 4.34136Z" fill="#2C2C2C" />
<path d="M19.8316 5.44261C19.8238 5.44411 19.8159 5.44544 19.808 5.44658C18.9789 5.56607 17.1148 6.16732 15.5447 7.44223C13.9949 8.70063 12.7698 10.5767 13.0449 13.2926C13.4169 16.9657 14.4649 21.6099 15.645 24.6114C15.7043 24.7623 15.6962 24.9327 15.6228 25.0768C15.5494 25.2209 15.4182 25.3241 15.2645 25.3585C13.6285 25.7248 12.2691 26.1462 11.1395 26.6152C10.9595 26.69 10.7546 26.6574 10.6045 26.5301C10.4545 26.4028 10.3832 26.201 10.4185 26.0034C10.8831 23.3962 11.0926 20.7922 10.7895 17.8004C10.2283 12.26 10.7167 9.17027 11.1679 7.46637C11.2797 7.04426 11.3878 6.71236 11.4729 6.45828C11.3781 6.49176 11.2662 6.53741 11.138 6.59782C10.8446 6.73609 10.4938 6.93819 10.1104 7.20552C9.34342 7.74027 8.4652 8.52241 7.66981 9.54096C6.08389 11.5718 4.83573 14.5277 5.427 18.3552C5.96593 21.8426 7.70461 26.7338 8.87004 28.9642C8.9487 29.1147 8.9554 29.2946 8.88818 29.451C7.18982 33.4028 6.04394 36.913 6.41421 40.5683C7.2164 48.4876 14.0703 54.2383 21.7126 53.4049C29.355 52.5715 34.9067 45.4676 34.1045 37.5486C33.9762 36.2813 33.1687 32.7054 30.9297 29.6257C28.7146 26.5789 25.1006 24.0115 19.2708 24.6473C19.1056 24.6653 18.9417 24.6023 18.8279 24.477C18.714 24.3517 18.6631 24.1784 18.6904 24.0086C19.202 20.8214 19.2797 16.2172 18.9184 12.6513C18.5985 9.4928 19.2026 7.42662 19.6399 6.1854C19.6903 6.04235 19.7349 5.91986 19.7749 5.81012C19.8247 5.67337 19.8673 5.55642 19.9049 5.44416C19.9059 5.44117 19.9069 5.4382 19.9079 5.43526C19.8829 5.4379 19.8633 5.43963 19.8515 5.44067C19.8484 5.44095 19.8457 5.44118 19.8438 5.44136C19.8402 5.44169 19.8366 5.44203 19.8316 5.44261Z" fill="white" />
<path d="M11.9496 6.37173C11.9495 6.3718 11.9475 6.37168 11.944 6.37117C11.9479 6.3714 11.9497 6.37165 11.9496 6.37173Z" fill="#2C2C2C" />
<path d="M11.629 5.96047C11.6293 5.95686 11.6296 5.95492 11.6297 5.95484C11.6297 5.95477 11.6296 5.95657 11.629 5.96047Z" fill="#2C2C2C" />
<path d="M30.2479 43.6542C29.355 44.7379 28.2541 45.6565 26.9978 46.3455L26.9978 46.3455C25.7413 47.0346 24.3301 47.4936 22.8181 47.6585C21.306 47.8234 19.8336 47.6789 18.4665 47.2758L18.4665 47.2758C17.0997 46.8729 15.8387 46.2119 14.7482 45.3446L15.2438 44.7431C16.2575 45.5493 17.4293 46.1634 18.6985 46.5376C19.9674 46.9117 21.3346 47.0462 22.7405 46.8928C24.1464 46.7395 25.4567 46.313 26.623 45.6734C27.7895 45.0336 28.8126 44.1802 29.6426 43.1728L30.2479 43.6542Z" fill="#2C2C2C" />
<path d="M23.3319 44.3975L23.6574 49.1563C23.6736 49.3936 23.541 49.6108 23.3355 49.6835L21.6948 50.2637C21.4507 50.3501 21.1861 50.2055 21.0993 49.9385L20.2545 47.3378L21.1454 46.9993L21.8342 49.1194L22.6861 48.8181L22.3882 44.463L23.3319 44.3975Z" fill="#2C2C2C" />
<path d="M25.7516 46.8673L25.9022 48.7965C25.925 49.0882 25.7337 49.3418 25.4742 49.3641L23.6098 49.5242L23.5219 48.4643L24.917 48.3446L24.8075 46.9426L25.7516 46.8673Z" fill="#2C2C2C" />
<path d="M24.3228 42.6971C24.3981 42.8088 24.4029 42.9537 24.3354 43.0715L23.2491 44.9664C23.1976 45.0563 23.1096 45.1202 23.0077 45.1416C22.9058 45.1631 22.7999 45.14 22.7173 45.0783L20.7117 43.5805C20.5951 43.4934 20.544 43.3444 20.5827 43.2038C20.6213 43.0632 20.7419 42.959 20.8876 42.9403L23.9795 42.5432C24.1147 42.5258 24.2475 42.5854 24.3228 42.6971Z" fill="#2C2C2C" />
<path d="M18.8949 42.0556C19.4702 41.7569 19.7028 41.0324 19.4145 40.4373C19.1261 39.8423 18.426 39.602 17.8507 39.9007C17.2754 40.1994 17.0428 40.9239 17.3311 41.5189C17.6195 42.114 18.3196 42.3542 18.8949 42.0556Z" fill="#2C2C2C" />
<path d="M24.9207 40.6735C25.5343 40.8735 26.1889 40.5209 26.3826 39.8859C26.5763 39.2509 26.2359 38.5739 25.6223 38.3739C25.0087 38.1738 24.3542 38.5264 24.1604 39.1614C23.9667 39.7964 24.3071 40.4734 24.9207 40.6735Z" fill="#2C2C2C" />
<path d="M40.9404 25.8978H43.4674V13.3798H43.8227L46.1917 25.8978H50.4954L52.8644 13.3798H53.2197V25.8978H55.7467V11.3661H50.91L48.5212 24.0295H48.1659L45.7771 11.3661H40.9404V25.8978Z" fill="white" />
<path d="M59.0798 14.397C59.9879 14.397 60.6788 13.7327 60.6788 12.7362C60.6788 11.7398 59.9879 11.0755 59.0798 11.0755C58.1717 11.0755 57.4807 11.7398 57.4807 12.7362C57.4807 13.7327 58.1717 14.397 59.0798 14.397Z" fill="white" />
<path d="M57.836 25.8978H60.3235V15.6011H57.836V25.8978Z" fill="white" />
<path d="M67.0875 26.1885C69.8908 26.1885 71.4899 24.4654 72.0032 22.2441L69.5947 21.6421C69.3775 22.9707 68.6471 23.8634 67.1467 23.8634C65.6463 23.8634 64.5013 22.8046 64.5013 20.8532V20.6456C64.5013 18.6942 65.6463 17.6355 67.1467 17.6355C68.6471 17.6355 69.3775 18.5904 69.5354 19.836L71.9439 19.2963C71.5294 17.0127 69.8908 15.3104 67.0875 15.3104C64.2447 15.3104 62.0139 17.2411 62.0139 20.6041V20.8948C62.0139 24.2578 64.2447 26.1885 67.0875 26.1885Z" fill="white" />
<path d="M73.4628 25.8978H75.9502V20.0436C75.9502 18.5904 76.8584 17.8846 78.1218 17.8846H79.3458V15.5595H78.1613C77.2532 15.5595 76.5425 15.9332 76.2661 16.7636H75.9108V15.6011H73.4628V25.8978Z" fill="white" />
<path d="M85.0098 26.1885C87.9316 26.1885 90.1427 24.2371 90.1427 20.9155V20.5834C90.1427 17.2618 87.9316 15.3104 85.0098 15.3104C82.0881 15.3104 79.877 17.2618 79.877 20.5834V20.9155C79.877 24.2371 82.0881 26.1885 85.0098 26.1885Z" fill="white" />
<path d="M85.0098 23.8634C83.4897 23.8634 82.3644 22.7839 82.3644 20.8532V20.6456C82.3644 18.715 83.47 17.6355 85.0098 17.6355C86.5497 17.6355 87.6552 18.715 87.6552 20.6456V20.8532C87.6552 22.7839 86.5299 23.8634 85.0098 23.8634Z" fill="#2C2C2C" />
<path d="M91.3726 25.8978H98.5586C101.026 25.8978 102.744 24.4862 102.744 22.0573V21.8497C102.744 19.7737 101.421 18.9641 100.553 18.715V18.3413C101.401 18.0714 102.665 17.2618 102.665 15.2481V15.0405C102.665 12.7777 101.007 11.3661 98.4796 11.3661H91.3726V13.7742H93.1889V23.4897H91.3726V25.8978Z" fill="white"/>
<path d="M95.7948 17.3449V13.8572H98.2033C99.3088 13.8572 100.059 14.4593 100.059 15.4973V15.7048C100.059 16.7428 99.289 17.3449 98.2033 17.3449H95.7948Z" fill="#2A2A2A" />
<path d="M95.7948 23.4067V19.836H98.2427C99.3878 19.836 100.138 20.438 100.138 21.5175V21.7251C100.138 22.8046 99.368 23.4067 98.2427 23.4067H95.7948Z" fill="#2A2A2A" />
<path d="M104.364 25.8978H106.851V11.3661H104.364V25.8978Z" fill="white" />
<path d="M113.675 26.1885C116.596 26.1885 118.807 24.2371 118.807 20.9155V20.5834C118.807 17.2618 116.596 15.3104 113.675 15.3104C110.753 15.3104 108.542 17.2618 108.542 20.5834V20.9155C108.542 24.2371 110.753 26.1885 113.675 26.1885Z" fill="white"/>
<path d="M113.675 23.8634C112.154 23.8634 111.029 22.7839 111.029 20.8532V20.6456C111.029 18.715 112.135 17.6355 113.675 17.6355C115.214 17.6355 116.32 18.715 116.32 20.6456V20.8532C116.32 22.7839 115.195 23.8634 113.675 23.8634Z" fill="#2A2A2A" />
<path d="M125.111 26.1885C127.914 26.1885 129.513 24.4654 130.027 22.2441L127.618 21.6421C127.401 22.9707 126.671 23.8634 125.17 23.8634C123.67 23.8634 122.525 22.8046 122.525 20.8532V20.6456C122.525 18.6942 123.67 17.6355 125.17 17.6355C126.671 17.6355 127.401 18.5904 127.559 19.836L129.967 19.2963C129.553 17.0127 127.914 15.3104 125.111 15.3104C122.268 15.3104 120.037 17.2411 120.037 20.6041V20.8948C120.037 24.2578 122.268 26.1885 125.111 26.1885Z" fill="white" />
<path d="M131.486 25.8978H133.974V21.8082H134.329L137.764 25.8978H140.962L136.284 20.5834L140.804 15.6011H137.567L134.329 19.4001H133.974V11.3661H131.486V25.8978Z" fill="white" />
<path d="M145.834 26.1885C148.322 26.1885 149.94 24.9636 149.94 22.8046C149.94 20.6456 148.203 19.9813 145.992 19.5661L145.439 19.4623C144.531 19.2963 143.978 19.0264 143.978 18.3621C143.978 17.7601 144.492 17.3864 145.439 17.3864C146.387 17.3864 147.058 17.7808 147.275 18.8396L149.585 18.0922C149.131 16.4314 147.631 15.3104 145.439 15.3104C143.11 15.3104 141.57 16.4522 141.57 18.4866C141.57 20.5211 143.268 21.3307 145.321 21.7251L145.874 21.8289C147.038 22.0573 147.532 22.3479 147.532 22.9915C147.532 23.635 146.979 24.1125 145.834 24.1125C144.689 24.1125 143.761 23.6558 143.505 22.2026L141.215 22.8254C141.55 24.9844 143.268 26.1885 145.834 26.1885Z" fill="white" />
</svg>
