<svg width="130" height="58" viewBox="0 0 130 58" fill="none" xmlns="http://www.w3.org/2000/svg">
<path d="M37 21.751H39.156V10.9831H39.4592L41.4805 21.751H45.1524L47.1737 10.9831H47.4768V21.751H49.6328V9.25098H45.5061L43.468 20.1438H43.1648L41.1267 9.25098H37V21.751Z" fill="#ECEDF1"/>
<path d="M52.4767 11.8581C53.2515 11.8581 53.841 11.2867 53.841 10.4295C53.841 9.57241 53.2515 9.00098 52.4767 9.00098C51.7019 9.00098 51.1123 9.57241 51.1123 10.4295C51.1123 11.2867 51.7019 11.8581 52.4767 11.8581ZM51.4155 21.751H53.5378V12.8938H51.4155V21.751Z" fill="#ECEDF1"/>
<path d="M59.309 22.001C61.7008 22.001 63.0651 20.5188 63.5031 18.6081L61.4481 18.0903C61.2628 19.2331 60.6396 20.001 59.3595 20.001C58.0794 20.001 57.1024 19.0903 57.1024 17.4117V17.2331C57.1024 15.5545 58.0794 14.6438 59.3595 14.6438C60.6396 14.6438 61.2628 15.4653 61.3976 16.5367L63.4525 16.0724C63.0988 14.1081 61.7008 12.6438 59.309 12.6438C56.8834 12.6438 54.9801 14.3045 54.9801 17.1974V17.4474C54.9801 20.3403 56.8834 22.001 59.309 22.001Z" fill="#ECEDF1"/>
<path d="M64.7484 21.751H66.8708V16.7153C66.8708 15.4653 67.6456 14.8581 68.7236 14.8581H69.7679V12.8581H68.7573C67.9825 12.8581 67.3761 13.1795 67.1403 13.8938H66.8371V12.8938H64.7484V21.751Z" fill="#ECEDF1"/>
<path d="M74.6005 22.001C77.0934 22.001 78.9799 20.3224 78.9799 17.4653V17.1795C78.9799 14.3224 77.0934 12.6438 74.6005 12.6438C72.1076 12.6438 70.2211 14.3224 70.2211 17.1795V17.4653C70.2211 20.3224 72.1076 22.001 74.6005 22.001ZM74.6005 20.001C73.3035 20.001 72.3434 19.0724 72.3434 17.4117V17.2331C72.3434 15.5724 73.2867 14.6438 74.6005 14.6438C75.9143 14.6438 76.8576 15.5724 76.8576 17.2331V17.4117C76.8576 19.0724 75.8975 20.001 74.6005 20.001Z" fill="#ECEDF1"/>
<path d="M80.0293 21.751H86.1605C88.2659 21.751 89.7313 20.5367 89.7313 18.4474V18.2688C89.7313 16.4831 88.6028 15.7867 87.8617 15.5724V15.251C88.586 15.0188 89.664 14.3224 89.664 12.5903V12.4117C89.664 10.4653 88.2491 9.25098 86.0931 9.25098H80.0293V11.3224H81.579V19.6795H80.0293V21.751ZM83.8023 14.3938V11.3938H85.8573C86.8005 11.3938 87.4406 11.9117 87.4406 12.8045V12.9831C87.4406 13.876 86.7837 14.3938 85.8573 14.3938H83.8023ZM83.8023 19.6081V16.5367H85.891C86.8679 16.5367 87.508 17.0545 87.508 17.9831V18.1617C87.508 19.0903 86.8511 19.6081 85.891 19.6081H83.8023Z" fill="#ECEDF1"/>
<path d="M91.1136 21.751H93.2359V9.25098H91.1136V21.751Z" fill="#ECEDF1"/>
<path d="M99.0576 22.001C101.55 22.001 103.437 20.3224 103.437 17.4653V17.1795C103.437 14.3224 101.55 12.6438 99.0576 12.6438C96.5647 12.6438 94.6782 14.3224 94.6782 17.1795V17.4653C94.6782 20.3224 96.5647 22.001 99.0576 22.001ZM99.0576 20.001C97.7606 20.001 96.8005 19.0724 96.8005 17.4117V17.2331C96.8005 15.5724 97.7437 14.6438 99.0576 14.6438C100.371 14.6438 101.315 15.5724 101.315 17.2331V17.4117C101.315 19.0724 100.355 20.001 99.0576 20.001Z" fill="#ECEDF1"/>
<path d="M108.815 22.001C111.207 22.001 112.571 20.5188 113.009 18.6081L110.954 18.0903C110.769 19.2331 110.146 20.001 108.866 20.001C107.586 20.001 106.609 19.0903 106.609 17.4117V17.2331C106.609 15.5545 107.586 14.6438 108.866 14.6438C110.146 14.6438 110.769 15.4653 110.904 16.5367L112.959 16.0724C112.605 14.1081 111.207 12.6438 108.815 12.6438C106.39 12.6438 104.486 14.3045 104.486 17.1974V17.4474C104.486 20.3403 106.39 22.001 108.815 22.001Z" fill="#ECEDF1"/>
<path d="M114.255 21.751H116.377V18.2331H116.68L119.611 21.751H122.34L118.348 17.1795L122.205 12.8938H119.443L116.68 16.1617H116.377V9.25098H114.255V21.751Z" fill="#ECEDF1"/>
<path d="M126.496 22.001C128.619 22.001 130 20.9474 130 19.0903C130 17.2331 128.518 16.6617 126.631 16.3045L126.16 16.2153C125.385 16.0724 124.913 15.8403 124.913 15.2688C124.913 14.751 125.351 14.4295 126.16 14.4295C126.968 14.4295 127.541 14.7688 127.726 15.6795L129.697 15.0367C129.309 13.6081 128.029 12.6438 126.16 12.6438C124.172 12.6438 122.858 13.626 122.858 15.376C122.858 17.126 124.307 17.8224 126.059 18.1617L126.53 18.251C127.524 18.4474 127.945 18.6974 127.945 19.251C127.945 19.8045 127.473 20.2153 126.496 20.2153C125.52 20.2153 124.728 19.8224 124.509 18.5724L122.555 19.1081C122.841 20.9653 124.307 22.001 126.496 22.001Z" fill="#ECEDF1"/>
<g filter="url(#filter0_d_277_388)">
<path d="M33.3535 48.1917C31.1397 51.3917 27.241 54.6147 22.2174 55.1614C18.8251 55.5306 15.7435 54.9607 12.9945 53.7908C10.5967 52.7704 8.49758 50.8362 7.10689 49.0299C5.7162 47.2237 4.16802 43.8591 3.8292 41.9372C3.49038 40.0152 3.51914 37.3261 4.01106 34.8092C4.4046 32.7957 5.39425 29.6973 5.83567 28.5709C5.36681 27.4447 4.48962 25.3637 4.15489 24.3316C3.73648 23.0416 3.36905 21.8351 3.01968 20.0923C2.65424 18.2695 2.39567 16.7768 2.49227 14.8965C2.58887 13.0162 3.31263 10.8005 3.95515 9.48409C4.59768 8.16764 5.79392 6.64264 6.85372 5.75553C7.91353 4.86843 10.4133 3.43894 11.9486 3.27185C13.4839 3.10476 13.584 3.80624 13.8199 4.99741C14.2845 4.57091 15.4238 3.63567 16.2643 3.30677C17.3149 2.89564 19.0195 2.4133 20.6206 2.32809C22.2217 2.24287 22.5806 2.94575 22.6626 3.47105C22.7447 3.99634 22.2113 5.53833 21.7962 6.83002C21.3812 8.12172 21.5017 9.59255 21.44 10.4006C21.3783 11.2087 21.4178 13.2441 21.5245 14.295C21.6311 15.346 21.7263 18.3107 21.4142 21.3198C25.3036 21.1091 29.4255 23.78 31.5137 26.1029C33.602 28.4257 36.2311 33.2023 36.3777 37.7717C36.4929 41.3626 35.7949 44.6625 33.3535 48.1917Z" fill="#7B849D"/>
</g>
<path d="M19.4348 4.77949C17.6319 5.03869 11.7101 7.28298 12.3006 13.101C12.6719 16.7587 13.7165 21.383 14.9042 24.3942C13.2659 24.76 11.8933 25.1832 10.7437 25.6591C11.2101 23.0531 11.4228 20.4354 11.1174 17.4263C10.0212 6.62725 13.043 5.5328 11.504 5.7003C9.96498 5.86778 3.55354 10.2182 4.77678 18.1164C5.31882 21.615 7.05666 26.4891 8.23403 28.735C6.55033 32.6383 5.36462 36.2084 5.74543 39.96C6.56724 48.0561 13.5971 53.934 21.4371 53.0808C29.2771 52.2276 34.9731 44.9645 34.1513 36.8686C33.883 34.2251 30.8606 22.3844 18.9188 23.684C19.4337 20.4903 19.5105 15.9069 19.1499 12.3549C18.5403 6.34921 21.4493 4.55954 19.5583 4.76533C19.4992 4.77176 19.4921 4.77036 19.434 4.77886L19.4348 4.77949Z" fill="white"/>
<path fill-rule="evenodd" clip-rule="evenodd" d="M19.4613 4.28332C19.4726 4.28232 19.4813 4.28156 19.4979 4.27974C19.7363 4.2538 20.01 4.24186 20.2402 4.33396C20.3739 4.38739 20.5091 4.48182 20.6043 4.63615C20.6962 4.78499 20.7209 4.94118 20.7224 5.06571C20.725 5.28878 20.6516 5.52845 20.5867 5.72189C20.5474 5.83883 20.4958 5.98053 20.4409 6.13159C20.4013 6.24025 20.36 6.35374 20.3202 6.46635C19.9248 7.58627 19.3745 9.445 19.6678 12.3341C20.0066 15.6722 19.9646 19.9102 19.5361 23.0951C25.3082 22.688 29.0078 25.3425 31.2877 28.472C33.6315 31.6892 34.477 35.4021 34.6184 36.7945C35.4685 45.1697 29.5853 52.6821 21.486 53.5636C13.3867 54.445 6.12362 48.3636 5.27346 39.9881C4.88623 36.1733 6.06165 32.5696 7.6905 28.7533C6.49718 26.3739 4.84129 21.6601 4.30902 18.2229L4.30902 18.2229C3.67122 14.1027 5.0263 10.8967 6.7372 8.71032C7.59025 7.62018 8.53384 6.77989 9.36961 6.19838C9.78754 5.90759 10.1833 5.67817 10.5325 5.51397C10.8728 5.35393 11.1997 5.24112 11.4728 5.2114C11.5744 5.20034 11.6792 5.19182 11.7758 5.19407C11.8632 5.19611 12.0047 5.20705 12.1435 5.27987C12.3174 5.3711 12.4358 5.53141 12.4784 5.7232C12.5123 5.87614 12.4906 6.01748 12.4736 6.10231C12.4445 6.2479 12.3809 6.43575 12.3167 6.62552C12.3066 6.65538 12.2965 6.68528 12.2865 6.71508C12.2058 6.95548 12.1074 7.25691 12.0058 7.63995C11.6014 9.16368 11.1237 12.0613 11.6649 17.3929C11.9394 20.0967 11.8029 22.4894 11.4435 24.8269C12.2677 24.5308 13.1857 24.259 14.2077 24.0121C13.0978 20.9645 12.1524 16.6494 11.8013 13.1909C11.4829 10.0542 12.9322 7.87571 14.6583 6.47706C16.3473 5.10848 18.3371 4.45025 19.3277 4.30044C19.3369 4.29857 19.3462 4.29695 19.3555 4.29558C19.3934 4.29006 19.4185 4.28722 19.4439 4.28488C19.4508 4.28424 19.4563 4.28376 19.4613 4.28332ZM19.5248 5.36525C19.5171 5.36672 19.5094 5.36802 19.5016 5.36915C18.6853 5.48654 16.8501 6.07724 15.3044 7.32979C13.7786 8.56611 12.5725 10.4093 12.8433 13.0775C13.2096 16.6862 14.2413 21.2489 15.4031 24.1977C15.4615 24.346 15.4535 24.5134 15.3813 24.655C15.309 24.7966 15.1798 24.8979 15.0285 24.9317C13.4178 25.2916 12.0795 25.7056 10.9675 26.1664C10.7903 26.2399 10.5885 26.2078 10.4408 26.0828C10.2931 25.9577 10.2229 25.7595 10.2576 25.5654C10.715 23.0039 10.9213 20.4455 10.6229 17.5063C10.0704 12.0631 10.5512 9.02751 10.9954 7.3535C11.1055 6.9388 11.2119 6.61272 11.2957 6.3631C11.2023 6.39599 11.0922 6.44084 10.966 6.50019C10.6771 6.63603 10.3318 6.83459 9.95432 7.09723C9.19924 7.6226 8.33464 8.39102 7.55158 9.3917C5.99026 11.3869 4.76146 14.2909 5.34356 18.0513C5.87413 21.4775 7.58585 26.2829 8.7332 28.4742C8.81064 28.6221 8.81724 28.7988 8.75106 28.9525C7.07903 32.8349 5.95092 36.2836 6.31545 39.8747C7.10521 47.6551 13.8528 53.3049 21.3766 52.4861C28.9005 51.6673 34.3661 44.6881 33.5764 36.9079C33.45 35.6629 32.6551 32.1497 30.4508 29.1241C28.27 26.1307 24.712 23.6084 18.9727 24.233C18.81 24.2507 18.6487 24.1888 18.5366 24.0657C18.4245 23.9426 18.3744 23.7724 18.4013 23.6055C18.905 20.4743 18.9814 15.9508 18.6258 12.4475C18.3108 9.34438 18.9055 7.31445 19.3361 6.095C19.3857 5.95446 19.4296 5.83412 19.469 5.72631C19.518 5.59196 19.5599 5.47706 19.5969 5.36677C19.5979 5.36383 19.5989 5.36092 19.5999 5.35802C19.5753 5.36062 19.556 5.36232 19.5444 5.36334C19.5413 5.36361 19.5387 5.36384 19.5367 5.36402C19.5332 5.36434 19.5297 5.36467 19.5248 5.36525ZM11.765 6.27806C11.7649 6.27813 11.763 6.27802 11.7595 6.27752C11.7633 6.27774 11.7651 6.27799 11.765 6.27806ZM11.4493 5.87402C11.4496 5.87048 11.45 5.86856 11.45 5.86849C11.4501 5.86842 11.45 5.87019 11.4493 5.87402Z" fill="#2C2C2C"/>
<path fill-rule="evenodd" clip-rule="evenodd" d="M29.7797 42.9056C28.9006 43.9702 27.8167 44.8727 26.58 45.5496L26.58 45.5496C25.3429 46.2266 23.9536 46.6776 22.465 46.8396C20.9764 47.0016 19.5269 46.8596 18.181 46.4636L18.181 46.4636C16.8353 46.0677 15.5939 45.4183 14.5203 44.5662L15.0082 43.9753C16.0062 44.7674 17.1598 45.3707 18.4093 45.7383C19.6586 46.1059 21.0045 46.238 22.3887 46.0874C23.7727 45.9367 25.0627 45.5177 26.211 44.8893C27.3594 44.2607 28.3666 43.4223 29.1838 42.4326L29.7797 42.9056Z" fill="#2C2C2C"/>
<path fill-rule="evenodd" clip-rule="evenodd" d="M22.9705 43.6391L23.291 48.3144C23.3069 48.5475 23.1764 48.7609 22.9741 48.8323L21.3588 49.4024C21.1184 49.4872 20.858 49.3452 20.7725 49.0828L19.9408 46.5277L20.8179 46.1952L21.496 48.2781L22.3347 47.9821L22.0414 43.7034L22.9705 43.6391Z" fill="#2C2C2C"/>
<path fill-rule="evenodd" clip-rule="evenodd" d="M25.3525 46.0625L25.5008 47.9579C25.5233 48.2444 25.3349 48.4936 25.0794 48.5155L23.244 48.6728L23.1574 47.6315L24.5309 47.5138L24.4231 46.1365L25.3525 46.0625Z" fill="#2C2C2C"/>
<path d="M22.71 44.1168L20.7134 42.4397L23.7587 42.0423L22.71 44.1168Z" fill="#2C2C2C"/>
<path fill-rule="evenodd" clip-rule="evenodd" d="M23.9466 41.9644C24.0207 42.0742 24.0255 42.2165 23.959 42.3322L22.8896 44.1939C22.8388 44.2822 22.7522 44.345 22.6519 44.366C22.5515 44.3871 22.4473 44.3644 22.366 44.3038L20.3915 42.8323C20.2767 42.7467 20.2264 42.6004 20.2645 42.4622C20.3025 42.3241 20.4212 42.2217 20.5647 42.2033L23.6086 41.8132C23.7417 41.7961 23.8725 41.8546 23.9466 41.9644ZM21.517 42.7881L22.4744 43.5016L22.9929 42.5989L21.517 42.7881Z" fill="#2C2C2C"/>
<path d="M18.603 41.3373C19.1694 41.0439 19.3984 40.3321 19.1145 39.7475C18.8307 39.1629 18.1414 38.9268 17.5751 39.2203C17.0087 39.5137 16.7797 40.2255 17.0635 40.8101C17.3474 41.3947 18.0366 41.6308 18.603 41.3373Z" fill="#2C2C2C"/>
<path d="M24.535 39.9793C25.1391 40.1759 25.7834 39.8295 25.9742 39.2056C26.1649 38.5817 25.8298 37.9166 25.2257 37.72C24.6216 37.5235 23.9772 37.8699 23.7865 38.4938C23.5957 39.1176 23.9309 39.7827 24.535 39.9793Z" fill="#2C2C2C"/>
<defs>
<filter id="filter0_d_277_388" x="0.471924" y="0.321045" width="37.9177" height="56.9519" filterUnits="userSpaceOnUse" color-interpolation-filters="sRGB">
<feFlood flood-opacity="0" result="BackgroundImageFix"/>
<feColorMatrix in="SourceAlpha" type="matrix" values="0 0 0 0 0 0 0 0 0 0 0 0 0 0 0 0 0 0 127 0" result="hardAlpha"/>
<feOffset/>
<feGaussianBlur stdDeviation="1"/>
<feColorMatrix type="matrix" values="0 0 0 0 0 0 0 0 0 0 0 0 0 0 0 0 0 0 0.5 0"/>
<feBlend mode="normal" in2="BackgroundImageFix" result="effect1_dropShadow_277_388"/>
<feBlend mode="normal" in="SourceGraphic" in2="effect1_dropShadow_277_388" result="shape"/>
</filter>
</defs>
</svg>
