<svg width="8" height="16" version="1.1" viewBox="0 0 8 16" xmlns="http://www.w3.org/2000/svg">
 <path d="m0.0074 13.4c0.0997 1.45 1.85 2.6 4 2.6 2.21 0 4-1.09 4-2.6v-0.00205h-1.67c2.9e-4 0.862-0.68 1.49-2.35 1.49-1.63 0-2.48-0.663-2.55-1.49z" fill="#000000"/>
 <path d="m4 10.5c-2.21 0-4 1.22-4 2.74 0 0.0438 0.00208 0.0877 0.00506 0.131h1.43c-0.00176-0.0219-0.00506-0.0434-0.00506-0.0655 2.9e-4 -0.862 0.522-1.56 2.19-1.56 1.67 0 2.71 0.764 2.71 1.63h1.67c-0.00162-1.51-1.79-2.87-4-2.87z" fill="#000000"/>
</svg>
