<svg width="9.59" height="16" version="1.0" xmlns="http://www.w3.org/2000/svg">
<path d="m3.52 11.6c-0.486 0.0125-1.01 0.129-1.52 0.359-1.49 0.67-2.33 2.05-1.87 3.08 0.461 1.03 2.05 1.32 3.54 0.646 0.0933-0.0419 0.189-0.0759 0.277-0.123 1.32-0.707 2.02-1.99 1.59-2.95-0.0164-0.0365-0.0355-0.0728-0.0547-0.107l-0.0293-0.0508c-0.348-0.572-1.08-0.872-1.93-0.85z" fill="#000000"/>
<path d="m4.89 0v12.3l-0.0623 0.495 0.023 0.0354 0.813 0.247v-13.1z" fill="#000000"/>
<path d="m5.66 0c-0.203 2.28 1.75 3.1 2.71 4.16 0.913 1.01 1.25 2.17 1.21 3.25-0.00996 0.29-0.0887 1.55-0.945 2.81 0.468-3.22-0.417-4.43-1.46-5.44-1.26-1.22-2.49-1.87-1.52-4.78z" fill="#000000"/>
<path d="m5.66 3.84c-0.203 2.28 1.75 3.1 2.71 4.16 0.913 1.01 1.25 2.17 1.21 3.25-0.00996 0.29-0.0887 1.55-0.945 2.81 0.468-3.22-0.417-4.43-1.46-5.44-1.26-1.22-2.49-1.87-1.52-4.78z" fill="#000000"/>
</svg>
