<svg width="6.18" height="16" version="1.1" viewBox="0 0 6.18 16" xmlns="http://www.w3.org/2000/svg">
  <path d="m0.00391 13.5c0.0771 1.38 1.43 2.48 3.09 2.48 1.71 0 3.09-1.04 3.09-2.48 0-6.52e-4 6e-7 -0.0013 0-0.00195h-0.84c2.24e-4 0.822-1.11 1.43-2.41 1.43-1.26 0-2.28-0.633-2.34-1.43h-0.596z" fill="#000000"/>
  <path d="m3.09 10.8c-1.71 0-3.09 1.17-3.09 2.61 0 0.0418 0.00161 0.0837 0.00391 0.125h0.596c-0.00136-0.0209-0.00391-0.0414-0.00391-0.0625 2.24e-4 -0.822 1.05-1.49 2.34-1.49 1.29 0 2.41 0.728 2.41 1.55h0.84c-0.00125-1.44-1.38-2.73-3.09-2.73z" fill="#000000"/>
  <path d="m6.18 13.5v-13.5h-0.84v13.5" fill="#000000"/>
 </g>
</svg>
