<svg width="5.66" height="16" version="1.0" xmlns="http://www.w3.org/2000/svg">
 <path d="m3.52 11.6c-0.486 0.0125-1.01 0.129-1.52 0.359-1.49 0.67-2.33 2.05-1.87 3.08 0.461 1.03 2.05 1.32 3.54 0.646 0.0933-0.0419 0.189-0.0759 0.277-0.123 1.32-0.707 2.02-1.99 1.59-2.95-0.0164-0.0365-0.0355-0.0728-0.0547-0.107l-0.631 0.35c0.00987 0.0159 0.0189 0.0324 0.0266 0.0496 0.202 0.45-0.428 1.19-1.43 1.7-0.085 0.0438-0.17 0.0781-0.26 0.119-1.15 0.518-2.27 0.541-2.49 0.0531-0.219-0.488 0.539-1.3 1.69-1.82 1.08-0.486 2.13-0.537 2.44-0.138l0.625-0.365c-0.348-0.572-1.08-0.872-1.93-0.85z" fill="#000000"/>
 <path d="m4.89 0v12.3l-0.0623 0.495 0.023 0.0354 0.813 0.247v-13.1z" fill="#000000"/>
</svg>
