<svg width="8" height="16" version="1.0" xmlns="http://www.w3.org/2000/svg">
 <path d="m3.74 11.5c-2.09 0.0748-3.74 1.06-3.74 2.26 0 1.25 1.79 2.26 4 2.26 2.21 0 4-1.01 4-2.26 0-0.371-0.159-0.722-0.441-1.03l-2.07 0.615c0.413 0.665 0.477 1.38 0.0996 1.81l-0.0137 0.0137c-0.521 0.579-1.67 0.399-2.55-0.398-0.885-0.797-1.18-1.92-0.654-2.5 0.175-0.194 0.423-0.303 0.705-0.332 0.557-0.057 1.26 0.201 1.85 0.73 0.17 0.153 0.318 0.319 0.443 0.49l1.98-0.631c-0.714-0.617-1.95-1.03-3.35-1.03-0.0862 0-0.171-0.00304-0.256 0z" fill="#000000"/>
 <path d="m5.37 13.1 0.123 0.184 2.07-0.615-0.207-0.199z" fill="#000000"/>
</svg>
