<svg width="25" height="25" version="1.1" viewBox="0 0 25 25" xmlns="http://www.w3.org/2000/svg">
 <path d="m0.895 7.86c-0.575 1.43-0.895 3-0.895 4.64 0 6.9 5.6 12.5 12.5 12.5 6.9 0 12.5-5.6 12.5-12.5 0-1.64-0.32-3.2-0.895-4.64h-1.08c0.625 1.42 0.975 2.99 0.975 4.64 0 6.36-5.14 11.5-11.5 11.5-6.36 0-11.5-5.14-11.5-11.5 0-1.65 0.35-3.22 0.975-4.64h-1.08z" color="#000000" fill="#454a64" style="-inkscape-stroke:none"/>
 <path d="m24.1 17.1c0.575-1.43 0.895-3 0.895-4.64 0-6.9-5.6-12.5-12.5-12.5s-12.5 5.6-12.5 12.5c0 1.64 0.32 3.2 0.895 4.64h1.08c-0.625-1.42-0.975-2.99-0.975-4.64 0-6.36 5.14-11.5 11.5-11.5s11.5 5.14 11.5 11.5c0 1.65-0.35 3.22-0.975 4.64z" color="#000000" fill="#454a64" style="-inkscape-stroke:none"/>
 <path d="m12.5 8.5c0.276 0 0.5 0.224 0.5 0.5v3h3c0.276 0 0.5 0.224 0.5 0.5s-0.224 0.5-0.5 0.5h-3v3c0 0.276-0.224 0.5-0.5 0.5s-0.5-0.224-0.5-0.5v-3h-3c-0.276 0-0.5-0.224-0.5-0.5s0.224-0.5 0.5-0.5h3v-3c0-0.276 0.224-0.5 0.5-0.5z" fill="#b0b3c5"/>
</svg>
