<svg width="25" height="25" version="1.1" viewBox="0 0 25 25" xmlns="http://www.w3.org/2000/svg">
 <path d="m12.5 25c6.9 0 12.5-5.6 12.5-12.5 0-6.9-5.6-12.5-12.5-12.5-6.9 0-12.5 5.6-12.5 12.5 0 6.9 5.6 12.5 12.5 12.5z" clip-rule="evenodd" fill="#fed722" fill-rule="evenodd" stroke-width="1.25"/>
 <path d="m12.5 8.5c0.276 0 0.5 0.224 0.5 0.5v3h3c0.276 0 0.5 0.224 0.5 0.5s-0.224 0.5-0.5 0.5h-3v3c0 0.276-0.224 0.5-0.5 0.5s-0.5-0.224-0.5-0.5v-3h-3c-0.276 0-0.5-0.224-0.5-0.5s0.224-0.5 0.5-0.5h3v-3c0-0.276 0.224-0.5 0.5-0.5z" fill="#262938"/>
</svg>
