<svg width="40" height="40" version="1.1" viewBox="0 0 40 40" xmlns="http://www.w3.org/2000/svg">
  <path d="m0.94746 35.217s-0.45887 0.42846 1.4741 2.3625c1.9315 1.9322 2.3596 1.4728 2.3596 1.4728l8.5969-10.519 2.0666-2.5271-1.455-1.4557-2.528 2.0655z" fill="#000000" stop-color="#000000" stroke="#000000" stroke-width="1.8"/>
  <path d="m33.924 6.0619c5.5458 5.5483 5.5459 14.544 2.1e-5 20.092-5.5459 5.5483-14.537 5.5483-20.083-1.6e-5 -5.5459-5.5482-5.5459-14.544-1.6e-5 -20.092 2.773-2.7742 6.4073-4.1612 10.042-4.1612 3.6344 5.1e-6 7.2688 1.3871 10.042 4.1612z" fill="none" stop-color="#000000" stroke="#000000" stroke-width="3.8"/>
  <path d="m31.924 17.781v2.9623h-16.084v-2.9623z" fill="#000000" stroke="#000000" stroke-width="0.5"/>
  <path d="m31.924 11.473v2.9623h-16.084v-2.9623z" fill="#000000" stroke="#000000" stroke-width="0.5"/>
</svg>
