<?xml version="1.0" encoding="UTF-8"?>
<svg width="32" height="32" fill="none" version="1.1" viewBox="0 0 32 32" xmlns="http://www.w3.org/2000/svg">
<path d="m32 16c0 8.8366-7.1634 16-16 16-8.8366 0-16-7.1634-16-16 0-8.8366 7.1634-16 16-16 8.8366 0 16 7.1634 16 16z" fill="#454A64"/>
<path d="m16 12.5c0.27614 0 0.5 0.22386 0.5 0.5v8.5c0 0.2761-0.22386 0.5-0.5 0.5s-0.5-0.2239-0.5-0.5v-8.5c0-0.27614 0.22386-0.5 0.5-0.5z" fill="#ECEDF1"/>
<path d="m18.53 12.501c0.2756 0.01622 0.486 0.25284 0.4697 0.5285l-0.5 8.5c-0.0162 0.2756-0.2528 0.486-0.52846 0.4697-0.27567-0.0162-0.48599-0.2528-0.46978-0.5285l0.50004-8.5c0.0162-0.27567 0.2528-0.48599 0.5285-0.46978z" fill="#ECEDF1"/>
<path d="m13.471 12.501c0.27567-0.01621 0.51228 0.19411 0.5285 0.46978l0.5 8.5c0.01621 0.2757-0.19411 0.5123-0.46978 0.5285-0.27566 0.0163-0.51228-0.1941-0.5285-0.4697l-0.5-8.5c-0.01621-0.27566 0.19411-0.51228 0.46978-0.5285z" fill="#ECEDF1"/>
<path d="m14.5 8c-0.82843 0-1.5 0.67157-1.5 1.5v1h-2.4941c-0.0034-3e-5 -0.0063-3e-5 -0.0098 0h-0.99609c-0.27614 0-0.5 0.22386-0.5 0.5s0.22386 0.5 0.5 0.5h0.53906l0.85352 10.66c0.08315 1.0394 0.94947 1.8398 1.9922 1.8398h4.4434v-1h-4.4434c-0.52136 0-0.95452-0.40022-0.99609-0.91992l-0.84567-10.58h6.2852v-1h-3.3281v-1c0-0.27614 0.22386-0.5 0.5-0.5h2.8281v-1z" fill="#ECEDF1"/>
<path d="m17.5 8c0.82843 0 1.5 0.67157 1.5 1.5v1h2.4941c0.0034-3e-5 0.0063-3e-5 0.0098 0h0.99609c0.27614 0 0.5 0.22386 0.5 0.5s-0.22386 0.5-0.5 0.5h-0.53906l-0.85352 10.66c-0.08315 1.0394-0.94947 1.8398-1.9922 1.8398h-4.4434v-1h4.4434c0.52136 0 0.95452-0.40022 0.99609-0.91992l0.84567-10.58h-6.2852v-1h3.3281v-1c0-0.27614-0.22386-0.5-0.5-0.5h-2.8281v-1z" fill="#ECEDF1"/>
</svg>
