<svg width="120" height="120" version="1.1" viewBox="0 0 120 120" xmlns="http://www.w3.org/2000/svg">
  <path d="m 120,60 c 0,16.569 -6.7157,31.569 -17.574,42.426 C 91.568,113.284 76.568,120 60,120 43.432,120 28.431,113.2843 17.574,102.426 6.716,91.568 0,76.568 0,60 -1.0234e-7,43.431 6.7157,28.431 17.574,17.574 28.432,6.716 43.432,0 60,0 76.568,0 91.569,6.7157 102.426,17.574 113.284,28.432 120,43.432 120,60 Z" fill="#ffffff" stop-color="#000000" stroke-linecap="round" stroke-width=".97792"/>
  <path d="m113.33 60-4.7802 4.057c-2.9321 2.4885-7.1296 5.6798-11.828 8.9254-4.6987 3.2456-10.294 6.4912-16.506 8.9254-6.2128 2.4342-13.043 4.057-20.213 4.057s-14-1.6228-20.213-4.057-11.808-5.6796-16.507-8.925c-9.3974-6.4912-16.329-12.982-16.329-12.982s6.9313-6.4912 16.329-12.982c4.6988-3.2454 10.294-6.4909 16.507-8.925 6.2128-2.4342 13.043-4.057 20.213-4.057s14.35 1.6228 20.913 4.057c6.5624 2.4342 12.507 5.6798 17.206 8.9254 4.6987 3.2456 8.5012 6.4912 11.129 8.9254s4.0809 4.057 4.0809 4.057z" fill="#666666" stop-color="#000000" stroke-linecap="square" stroke-width=".97791"/>
  <path d="m77.412 60c0 4.8083-1.949 9.1613-5.0999 12.312s-7.504 5.0998-12.312 5.0998c-4.8083 0-9.1614-1.9489-12.312-5.1-3.151-3.151-5.1-7.5041-5.1-12.312 0-4.8083 1.949-9.1613 5.0999-12.312s7.504-5.0998 12.312-5.0998c4.8083 0 9.1614 1.9489 12.312 5.1s5.1 7.5041 5.1 12.312z" fill="#666666" stop-color="#000000" stroke="#ffffff" stroke-linecap="square" stroke-width="7.8233"/>
  <path d="m21.424 14.095c-2.6497 2.2269-5.1017 4.6789-7.3286 7.3286l84.481 84.481c2.6497-2.2269 5.1017-4.6789 7.3286-7.3286l-42.24-42.24z" fill="#c8c8c8" stop-color="#000000"/>
</svg>
