<svg width="120" height="120" version="1.1" viewBox="0 0 120 120" xmlns="http://www.w3.org/2000/svg">
  <g stroke-linecap="round">
    <path d="m120 60c0 33.137-26.863 60-60 60-33.137 0-60-26.863-60-60 0-33.137 26.863-60 60-60 16.569 0 31.569 6.7157 42.426 17.574 10.858 10.858 17.574 25.858 17.574 42.426z" fill="#ffffff" stop-color="#000000" stroke-width=".97792"/>
    <path d="m92.756 39.885-11.721 67.017c-0.23452 1.3408-1.2991 2.4481-2.9128 2.4481h-40.156c-1.6137 0-2.6784-1.1073-2.9128-2.4481l-11.721-67.017z" fill="#666666" stroke="#666666" stroke-linejoin="round" stroke-width="2.1256"/>
    <path d="m56.044 45.224h3.7196c0.71567 0 1.2918 0.9615 1.2918 2.1558v52.741c0 1.1943-0.57616 2.1558-1.2918 2.1558h-3.7196c-0.71567 0-1.2918-0.9615-1.2918-2.1558v-52.741c0-1.1943 0.57616-2.1558 1.2918-2.1558z" fill="#b3b3b3" stroke-linejoin="round" stroke-width="1.7662"/>
    <path d="m37.795 45.2-3.6948 0.42879c-0.7109 0.0825-1.1724 1.104-1.0347 2.2904l6.0798 52.389c0.13769 1.1864 0.82084 2.0751 1.5317 1.9926l3.6948-0.42879c0.7109-0.0825 1.1724-1.104 1.0347-2.2904l-6.0798-52.389c-0.13769-1.1864-0.82084-2.0751-1.5317-1.9926z" fill="#b3b3b3" stroke-linejoin="round" stroke-width="1.7662"/>
    <path d="m78.293 45.2 3.6948 0.42879c0.7109 0.08251 1.1724 1.104 1.0347 2.2904l-6.0798 52.389c-0.13769 1.1864-0.82084 2.0751-1.5317 1.9926l-3.6948-0.42879c-0.7109-0.0825-1.1724-1.104-1.0347-2.2904l6.0798-52.389c0.13769-1.1864 0.82084-2.0751 1.5317-1.9926z" fill="#b3b3b3" stroke-linejoin="round" stroke-width="1.7662"/>
    <path d="m25.012 27.56 63.592-10.943c2.3923-0.41165 4.6495 1.1828 5.0612 3.5751l0.30731 1.7859c0.41165 2.3923-1.1828 4.6495-3.5751 5.0612l-63.592 10.943c-2.3923 0.41165-4.6495-1.1828-5.0612-3.5751l-0.30731-1.7859c-0.41165-2.3923 1.1828-4.6495 3.5751-5.0612z" fill="#666666" stroke-linejoin="round" stroke-width="2.3186"/>
    <path d="m21.745 34.407 72.228-12.429 0.74305 4.3181-72.228 12.429z" fill="#666666" stroke-linejoin="round" stroke-width="2.3186"/>
    <path d="m42.246 13.559 25.436-4.377c1.1961-0.20583 2.3248 0.59142 2.5306 1.7875l2.0697 12.028c0.20583 1.1961-0.59142 2.3248-1.7876 2.5306l-25.436 4.377c-1.1961 0.20583-2.3248-0.59142-2.5306-1.7875l-2.0697-12.028c-0.20583-1.1961 0.59142-2.3248 1.7876-2.5306z" fill="none" stroke="#666666" stroke-linejoin="round" stroke-width="6.9558"/>
  </g>
</svg>
