<?xml version="1.0" encoding="UTF-8"?>
<svg width="16" height="16" version="1.1" viewBox="0 0 16 16" xmlns="http://www.w3.org/2000/svg">
 <path d="m6.5 0c-3.5898 0-6.5 2.9102-6.5 6.5 0 0.18721 0.0098784 0.37149 0.025391 0.55469h1.0039c-0.018265-0.1824-0.029297-0.36748-0.029297-0.55469 0-3.0376 2.4624-5.5 5.5-5.5s5.5 2.4624 5.5 5.5c0 0.18721-0.011032 0.37229-0.029297 0.55469h1.0039c0.015512-0.1832 0.025391-0.36748 0.025391-0.55469 0-3.5898-2.9101-6.5-6.5-6.5z" fill="#6e7895" stop-color="#000000" stroke-linecap="square"/>
 <path d="m0.025391 5.9453c-0.015512 0.18319-0.025391 0.36748-0.025391 0.55469 0 3.5899 2.9102 6.5 6.5 6.5 3.5899 0 6.5-2.9101 6.5-6.5 0-0.18721-0.009879-0.37149-0.025391-0.55469h-1.0039c0.018265 0.1824 0.029297 0.36748 0.029297 0.55469 0 3.0376-2.4624 5.5-5.5 5.5s-5.5-2.4624-5.5-5.5c0-0.18721 0.011032-0.37229 0.029297-0.55469h-1.0039z" fill="#6e7895" stop-color="#000000" stroke-linecap="square"/>
 <path d="m10.301 11.699c0.0295 0.04 0.10535 0.12125 0.14155 0.15745l3.8505 3.8505c0.3905 0.3905 1.0237 0.3905 1.4142 0s0.3905-1.0237 0-1.4142l-3.8505-3.8505c-0.0362-0.0362-0.11745-0.11205-0.15745-0.14155-0.3923 0.5341-0.8642 1.006-1.3983 1.3983z" fill="#6e7895"/>
 <path d="M6.5 3C6.77614 3 7 3.22386 7 3.5V6H9.5C9.77614 6 10 6.22386 10 6.5C10 6.77614 9.77614 7 9.5 7H7V9.5C7 9.77614 6.77614 10 6.5 10C6.22386 10 6 9.77614 6 9.5V7H3.5C3.22386 7 3 6.77614 3 6.5C3 6.22386 3.22386 6 3.5 6H6V3.5C6 3.22386 6.22386 3 6.5 3Z" clip-rule="evenodd" fill="#6e7895" fill-rule="evenodd"/>
</svg>
