<svg width="40" height="40" version="1.1" viewBox="0 0 40 40" xmlns="http://www.w3.org/2000/svg">
  <path d="m33.913 6.0869c5.5461 5.5462 5.5462 14.538 1.6e-5 20.084-5.5462 5.5462-14.538 5.5461-20.084-2.1e-5 -5.5462-5.5461-5.5462-14.538-2.1e-5 -20.084 2.7731-2.7731 6.4076-4.1596 10.042-4.1596 3.6346 0 7.2691 1.3865 10.042 4.1596z" fill="none" stop-color="#000000" stroke="#000000" stroke-width="3.8"/>
  <path d="m0.93535 35.231s-0.45919 0.4283 1.4742 2.3616c1.9315 1.9315 2.3596 1.4722 2.3596 1.4722l8.5973-10.515 2.0667-2.5261-1.455-1.4551-2.5282 2.0646z" fill="#000000" stop-color="#000000" stroke="#000000" stroke-width="1.8"/>
  <path d="m25.364 8.0739v6.5746h6.5496v2.9612h-6.5496v6.5746h-2.9862v-6.5746h-6.5496v-2.9612h6.5496v-6.5746z" fill="#000000" stroke="#000000" stroke-width="0.5"/>
</svg>
