<?xml version="1.0" encoding="UTF-8"?>
<svg width="16" height="16" version="1.1" viewBox="0 0 16 16" xmlns="http://www.w3.org/2000/svg">
 <path d="m10.344 11.742c0.0295 0.04 0.0623 0.0782 0.0985 0.1144l3.8505 3.8505c0.3905 0.3905 1.0237 0.3905 1.4142 0s0.3905-1.0237 0-1.4142l-3.8505-3.8505c-0.0362-0.0362-0.0744-0.069-0.1144-0.0985-0.3923 0.5341-0.8642 1.006-1.3983 1.3983z" fill="#6e7895"/>
 <path d="M3 6.5C3 6.22386 3.22386 6 3.5 6H9.5C9.77614 6 10 6.22386 10 6.5C10 6.77614 9.77614 7 9.5 7H3.5C3.22386 7 3 6.77614 3 6.5Z" clip-rule="evenodd" fill="#6e7895" fill-rule="evenodd"/>
 <path d="m6.5 0c-3.5898 0-6.5 2.9102-6.5 6.5 0 0.18721 0.00988 0.37149 0.025391 0.55469h1.0039c-0.018265-0.1824-0.029297-0.36748-0.029297-0.55469 0-3.0376 2.4624-5.5 5.5-5.5 3.0376 0 5.5 2.4624 5.5 5.5 0 0.18721-0.01103 0.37229-0.0293 0.55469h1.0039c0.01551-0.1832 0.02539-0.36748 0.02539-0.55469 0-3.5898-2.9101-6.5-6.5-6.5z" fill="#6e7895" stop-color="#000000" stroke-linecap="square"/>
 <path d="m0.025391 5.9453c-0.015512 0.18319-0.025391 0.36748-0.025391 0.55469 0 3.5899 2.9102 6.5 6.5 6.5 3.5899 0 6.5-2.9101 6.5-6.5 0-0.18721-0.0099-0.37149-0.02539-0.55469h-1.0039c0.01826 0.1824 0.0293 0.36748 0.0293 0.55469 0 3.0376-2.4624 5.5-5.5 5.5-3.0376 0-5.5-2.4624-5.5-5.5-1e-6 -0.18721 0.011031-0.37229 0.029296-0.55469z" fill="#6e7895" stop-color="#000000" stroke-linecap="square"/>
</svg>
